<?xml version="1.0" encoding="utf-8"?>
<!-- Generator: Adobe Illustrator 27.9.0, SVG Export Plug-In . SVG Version: 6.00 Build 0)  -->
<svg version="1.1" id="Layer_1" xmlns="http://www.w3.org/2000/svg" xmlns:xlink="http://www.w3.org/1999/xlink" x="0px" y="0px"
	 viewBox="0 0 231.6 190" style="enable-background:new 0 0 231.6 190;" xml:space="preserve">
<style type="text/css">
	.st0{opacity:0.81;}
	.st1{fill:#C5FFCC;}
	.st2{fill:none;}
	.st3{fill:#FFFFFF;}
	.st4{fill:#FFFBE3;}
	.st5{fill:#C9C9C9;}
	.st6{fill:#469B6A;}
	.st7{fill:#E2E2E2;}
	.st8{fill:#FFCB57;}
	.st9{fill:#FEF48D;}
</style>
<g>
	<g>
		<g class="st0">
			<polyline class="st1" points="70.6,188.2 64.7,186.9 60.5,184.7 58.1,183.2 54,178.4 53.3,177 52.7,175.5 52.4,173.7 51,172.8 
				50.3,171.3 49.6,170.2 48.2,168.9 46.8,169.2 45.1,169.3 43.7,168.2 42,168.6 40.3,167.3 38.6,166.3 38,165 37.3,163.6 
				36.9,161.5 35.4,163.1 34,162.6 32.6,162.5 31.2,161.4 29.8,160.5 28.4,159.4 26.5,159.8 25.3,158.4 24.8,156.6 25.5,154.9 
				24.1,153.9 24,151.9 23.3,150.8 22.1,148.8 22.8,146.3 20.9,146.5 20.1,145 19.1,143.8 17.6,143.7 16.3,143 14.8,142.4 
				13.9,140.7 13.7,138.6 12.2,137.8 11.4,136.2 10.8,134.5 9.3,133.5 9.5,131.4 8.2,129.8 7.7,128 7.5,126 7,124.2 6.3,122.3 
				7.5,120.7 7,118.5 8.1,116.7 6.8,115.3 6.5,113.6 6.6,111.9 5,110.4 5.8,108.6 6.3,106.9 6.8,105.1 6.7,103.3 5.6,101.7 
				5.2,99.9 5.6,98.1 6,96.6 5.8,94.9 6,93.2 5.5,91.3 6.4,89.8 5.6,88.1 5.1,86.4 3.7,85.2 2.7,83.7 3,81.5 2.2,80.3 2.6,78.7 
				2.7,76.6 2.7,74.6 3.1,72.7 1.9,71 2.3,68.9 1.2,67.6 1.4,66 0.6,64.4 0,62.8 0.3,61 1.5,60.3 2.5,60.7 3.8,60.8 4.9,60.2 
				5.4,58.7 7,58 7,55.8 8.3,54.8 9,53.2 10.3,52.3 10.2,50 11.8,49.5 12.4,47.9 12.9,46.3 13.7,44.8 15,43.7 15.7,42.1 16.8,40.8 
				17.1,39.1 18.5,38.3 19.2,36.9 19.7,35.3 20.6,34 22,33.2 23,32 23.9,30.5 25.8,30.3 26.4,28.2 28.4,28.3 28.8,26.1 30.1,25.2 
				30.7,24.2 31.7,23.3 33.1,22.8 34.7,24.1 36,23.3 37,22.2 38.2,21.6 39,20.2 40.5,20.1 42.2,20 43.8,19.7 45.5,20.6 47.1,21 
				48.5,19.6 50.2,20.6 51.8,20.1 53.4,20.1 54.7,19.2 56.6,19.8 57.4,18.4 58.8,18.1 59.3,16.3 61.2,16.3 62.5,16.6 63.7,18.1 
				65,16.7 66.2,15.6 68.3,16.9 69,15.3 70.3,14.7 71.5,14.8 72.7,14.3 73.3,12.9 73.5,11 73.9,9 75.5,8.1 76.9,6.6 78.3,7.8 
				79.2,9.2 80.5,9.8 81.6,9.5 82.6,9 84.3,8.7 84.8,7.2 84.7,5.5 97,0.8 98.6,1.3 100.2,2.6 102.2,2.6 103.7,3 105.1,2.8 
				106.5,2.3 107.7,1.3 109,0.8 110.6,1.1 111.9,1.1 113.4,0 114.7,0.8 116,2.2 117.4,2.6 118.9,2.3 120.1,3.8 121.8,2.8 123.1,4.6 
				124.7,3.7 126.1,5 127.7,4.5 129.1,6.2 130.8,6.1 132.4,5.5 134,5 135.6,4.9 137.2,4.7 138.8,4.1 140.5,4.1 142.1,4.2 143.6,5 
				144.2,7.3 146.3,7.9 146.7,10.4 147.9,11.3 149,12.7 149.4,12.6 150.5,14 149.7,15.8 150.7,17.6 150.5,19.3 152.4,20.5 
				152.8,18.5 153.7,17.3 154,15.6 155.6,15.8 157.5,16 158.1,18.3 158.1,20.3 158.3,21.8 159.4,22.6 159.9,24.3 161,25.6 
				162.2,26.9 163.1,28.4 163,30.4 163.9,31.9 164.5,33.6 165.6,35.5 167.5,36.7 168.4,38.3 168.1,40.5 169.6,41.8 169.3,43.9 
				170.3,45.5 171.7,46.8 173.2,47.4 174.6,48.4 176.2,49.3 176.1,51.4 177.8,52.3 178.2,54 178.8,55.6 179.8,56.9 180.4,58.5 
				181.8,59.6 182.8,61.2 183.1,63.4 183.8,64.9 184.2,66.7 184.7,68.4 185.2,70.1 185.8,71.8 186.9,73.4 186.5,75.4 187.3,77 
				188.4,78.2 189.6,79.3 189.9,81.4 191.2,82.4 192.4,83.5 193.5,84.9 194.7,86 195.7,87.5 196.4,89.3 197.1,91.2 198.4,92.3 
				198.8,94 198.2,95.5 198.1,97.1 198.1,98.8 197,100.1 196.8,101.7 196.1,103 196.8,105.1 195.7,106.4 196,108.4 194.3,109.4 
				194,111 194.3,113.1 193,114 191.7,114.5 190.3,114.9 188.8,115 187.5,115.7 186.6,117.3 186.6,119.3 186.3,121 185,122 
				184.8,123.8 184.2,125.6 182.5,125.7 181.2,126.4 180.5,127.9 179.4,128.7 178.4,129.9 176.7,129.8 176.4,132 174.5,132 
				174.2,134 174.6,136 174.3,137.8 173.8,139.6 173.8,141.5 173.6,143.2 173.5,145 173.1,146.7 173.1,148.6 171.4,149.7 172,151.8 
				170.9,153.1 171.1,155.1 169.7,156.3 169.8,158.2 169.7,159.8 170.3,161.3 170.3,162.9 170.9,164.5 171.3,166.3 169.3,166.4 
				168,167.3 167.1,169.4 165.5,169 164.1,169.2 163,170.4 161.4,169.8 160.1,169.6 159,168.8 157.7,167.8 156.3,166.9 154.8,166.4 
				153.4,166.1 151.9,166.3 150.6,165.5 149.2,165.3 147.8,165.1 146.3,165.4 144.9,166.2 143.9,167.8 142.4,167.2 141.1,167.9 
				139.8,167.7 138.5,167.4 137.5,168.2 136.9,169.7 135.8,170.5 135.4,172.1 134.3,173.4 132.4,172.3 130.9,173.3 129.2,172.6 
				127.9,173.9 126.4,173.8 124.8,173.4 123.5,174.1 122,174.1 120.6,174.8 119.1,175.3 117.9,176.7 116.2,175.9 114.6,175.4 
				113,173.9 112,175.1 110.9,175.9 109.2,175.4 107.7,174.8 106.2,173.6 104.4,173.2 103.6,175.2 102.3,175.8 101,176.4 
				100.1,177.7 98.1,177 97.3,178.5 95.6,178.6 94.8,180.5 92.9,180.2 91.6,181.3 90.2,182.2 88.3,181.5 86.8,182.2 86.3,184 
				85.1,184.9 83.6,183.6 82.1,183.7 80.9,184.1 79.7,185 75.1,186.9 			"/>
			<line class="st2" x1="104.2" y1="1.2" x2="105.6" y2="0.1"/>
		</g>
		<polygon class="st3" points="72.7,69.7 90.5,69.7 90.5,41.8 77.5,42.7 		"/>
	</g>
	<g>
		<path class="st3" d="M88,62.6C88,62.6,88,62.6,88,62.6c0.1-0.1,0.2-0.1,0.2-0.2C88.4,61.9,88,62.6,88,62.6z"/>
		<path class="st3" d="M101,87.5c0.9-5.2-1.6-9.6-1.6-9.6l5.5-4.7c-5.4-8.2-7.8-8-9.6-8.6c-1.6-0.5-6.5-1.8-7.2-2
			c-3.2,7.3-12,4-12,4c-0.1,3.4-1.5,4.5-1.5,4.5c-1.1,1.5-0.9,6.1-0.9,6.1c1.4,35.4-8.5,36.9-8.5,36.9c22.2,4.1,36.4-1.4,36.4-1.4
			S100.1,92.7,101,87.5z"/>
		<path class="st3" d="M66.9,69.3l-0.3-4.6c0,0-6.9,2.2-10.2,7.6l8.5,7.4l2.9-6.1C67.8,73.6,69.1,72.2,66.9,69.3z"/>
	</g>
	<g>
		<path class="st4" d="M103.4,189.6L93.7,54.5L91,13.4l35.5-2.5c0,0,9.2,10.9,26.7,9.2s14.6-11.9,14.6-11.9L209,5.6l8.2,76.6
			l12.3,90.1l1.2,8.7l-36.3,1.3c0,0-10.7-13-28.1-10.1C148,175.2,147,186,147,186L103.4,189.6z"/>
		<path class="st3" d="M97.8,114.4c-2.4-24.1-4-44.3-4.9-60.5l-0.7-14.1c-0.3,0.1-0.5,0.1-0.8,0.1c0.4,9.8,0.9,19.8,1.6,30.2
			c1.1,16.3,2.5,33.8,4.4,52.5c0.5,5.3,1.3,12.5,2.2,21.7c0.4-0.1,0.8-0.2,1.1-0.3C98.9,125.7,97.9,115.8,97.8,114.4z"/>
		<g>
			<g id="Layer0_41_FILL">
				<path d="M193.5,182.9l-0.3,1.4c3.7-0.2,8.8-0.4,15.3-0.7c8.9-0.4,16.2-0.8,21.9-1.3c0.7-0.1,1.1-0.3,1.2-0.6
					c0-0.2,0-0.3-0.1-0.5c-0.1-0.1-0.3-0.2-0.5-0.3s-0.6-0.1-1.1-0.1c-5.4,0.5-12.1,0.9-20.1,1.3
					C203.1,182.5,197.7,182.7,193.5,182.9 M147.1,187.6l0.2-1.2c-16.2,1.4-28.5,2.4-37,2.8c-0.4,0-0.6,0.1-0.7,0.3
					c0,0.2,0.1,0.3,0.3,0.4c0.2,0.1,0.4,0.1,0.6,0.1C119.6,189.6,131.7,188.8,147.1,187.6z"/>
			</g>
		</g>
		<g>
			<g id="Layer0_42_FILL">
				<path d="M208.8,5.9c-0.2,0-0.5,0-1,0.1c-1,0.2-2.2,0.3-3.5,0.5c-0.8,0.1-2,0.1-3.5,0.2c-10.9,0.5-21.8,1-32.8,1.7l-0.2,0.8
					c1.3-0.1,2.7-0.1,4.1-0.2c8.1-0.4,20.2-1,36.4-1.7c0.8,0,1.3-0.3,1.2-0.7c0-0.1-0.1-0.3-0.2-0.4C209.1,6.1,209,6,208.8,5.9
					 M126.3,11.9l0.1-0.4l-0.6-0.1c-5,0.4-10,0.8-15,1.3c-4.4,0.4-7.3,0.6-8.5,0.7c-3.2,0.3-6,0.4-8.5,0.5c-0.7,0-1.3,0.1-1.6,0.1
					c-0.6,0.1-1.1,0.2-1.6,0.3c1.9,0.1,4,0.1,6.3-0.1c1.3-0.1,3.4-0.2,6.2-0.5C112,13.1,119.7,12.5,126.3,11.9z"/>
			</g>
		</g>
		<g>
			<g id="Layer0_43_FILL">
				<path d="M208.5,7.1c-0.1,1.3,0,3.3,0.3,6c4.4,44.7,9.8,89.4,16.3,133.9l0.9,5.9c1.2,8.7,2.2,17.9,3.1,27.8c0,0.5,0.1,0.8,0.3,1
					c0.1,0.2,0.3,0.3,0.5,0.3c0.2,0.1,0.4,0.1,0.5,0c0.3-0.1,0.4-0.5,0.3-1c-0.8-9.3-2.2-20.7-4.1-34.1c-2.3-15.1-3.9-26.5-5-34
					c-0.9-6.3-2.1-15.4-3.5-27.4l-3.4-27.4c-1.4-11.1-2.4-19.6-3.1-25.6c-1-9.4-1.8-18-2.3-25.6c0-0.3-0.1-0.4-0.2-0.5
					c-0.1,0-0.3,0-0.4,0.1C208.6,6.8,208.5,7,208.5,7.1z"/>
			</g>
		</g>
		<g>
			<g id="Layer0_44_FILL">
				<path d="M170.1,172.5c-4.6,0-8.9,0.9-12.9,2.9c-4.1,2-7.2,4.7-9.4,8.1c-0.7,1.1-1.2,2.2-1.3,3c-0.1,0.2,0,0.4,0.1,0.5
					s0.3,0.1,0.5,0s0.3-0.3,0.4-0.5c1.5-3.5,4-6.4,7.6-8.8c3.5-2.3,7.4-3.7,11.7-4.2c4.2-0.4,8.5,0,12.8,1.5
					c4.2,1.4,7.9,3.5,11.1,6.2c0.9,0.8,1.6,1.5,1.9,2.1c0.3,0.5,0.5,0.7,0.7,0.9c0.2,0.1,0.4,0.2,0.6,0.1c0.2,0,0.4-0.1,0.4-0.3
					c0.1-0.2,0-0.5-0.3-0.8c-2.9-3.3-6.5-5.9-10.7-7.8C179,173.6,174.6,172.6,170.1,172.5z"/>
			</g>
		</g>
		<g>
			<g id="Layer0_46_FILL">
				<path d="M165.4,13.8c-0.7,1.1-1.5,2.1-2.3,2.9c-1.3,1.2-2.8,2.2-4.6,3c-1.7,0.7-3.6,1.2-5.6,1.5c-3.7,0.4-7.6,0-11.8-1.2
					c-2.8-0.8-5.4-1.9-7.9-3.3s-4.8-3-6.8-4.9c-0.1,0-0.2,0-0.2,0.1c-0.1,0.1-0.1,0.1-0.1,0.2c0,0.1,0.1,0.2,0.3,0.4
					c3.5,3,7.4,5.4,11.8,7.1c4.1,1.6,8,2.4,11.8,2.5c2.1,0,4-0.2,5.9-0.6c2-0.5,3.8-1.1,5.4-2c2-1.1,3.8-2.6,5.1-4.4
					s2.3-3.8,2.8-5.9c0.1-0.5,0-0.9-0.2-1.1C168.8,8,168.6,8,168.4,8c-0.2,0-0.4,0.1-0.5,0.3c-0.2,0.2-0.3,0.5-0.4,1
					C167.1,10.7,166.4,12.2,165.4,13.8z"/>
			</g>
		</g>
		<g>
			<g id="Layer0_48_FILL">
				<path d="M107,40.7c0,0.1,0.1,0.1,0.2,0.2c0.6,0.2,1.2,0.3,1.6,0.3c0.3,0,0.6,0,1-0.1c0.3,0,0.5-0.1,0.6-0.1
					c0.2-0.1,0.3-0.2,0.3-0.3c0.1-0.2,0.1-0.3,0.1-0.5c-0.1-0.2-0.2-0.3-0.4-0.4c-0.2-0.1-0.4-0.1-0.6-0.1s-0.6,0.1-1.1,0.2l-1,0.3
					c-0.3,0.1-0.5,0.2-0.6,0.3C107,40.6,107,40.6,107,40.7z"/>
			</g>
		</g>
		<g>
			<g id="Layer0_49_FILL">
				<path d="M118.5,40.1c0-0.3-0.1-0.5-0.3-0.7c-0.2-0.1-0.4-0.2-0.8-0.1c-0.4,0-1,0.2-1.8,0.5c-0.3,0.1-0.5,0.2-0.6,0.3
					s-0.1,0.2-0.1,0.3s0,0.2,0.1,0.3s0.3,0.1,0.5,0.2c0.6,0,1.1,0,1.3-0.1c0.3-0.1,0.6-0.1,0.6-0.1s0.1,0,0.3,0c0.1,0,0.2,0,0.3,0
					c0.1,0,0.2-0.1,0.3-0.2C118.4,40.3,118.5,40.2,118.5,40.1z"/>
			</g>
		</g>
		<g>
			<g id="Layer0_49_FILL_00000115505381258034345560000014456052995297070491_">
				<path d="M104.2,41.1c0-0.3-0.1-0.5-0.3-0.7c-0.2-0.1-0.4-0.2-0.8-0.1c-0.4,0-1,0.2-1.8,0.5c-0.3,0.1-0.5,0.2-0.6,0.3
					s-0.1,0.2-0.1,0.3s0,0.2,0.1,0.3s0.3,0.1,0.5,0.2c0.6,0,1.1,0,1.3-0.1c0.3-0.1,0.6-0.1,0.6-0.1s0.1,0,0.3,0c0.1,0,0.2,0,0.3,0
					c0.1,0,0.2-0.1,0.3-0.2C104.2,41.3,104.2,41.2,104.2,41.1z"/>
			</g>
		</g>
		<g>
			<g id="Layer0_50_FILL">
				<path d="M126.3,38.3c-0.1,0-0.3,0-0.6,0c-1,0.1-2,0.4-2.9,0.8c-0.1,0.1-0.2,0.1-0.3,0.2c-0.1,0.1-0.1,0.2-0.1,0.4
					c0,0.1,0.1,0.1,0.3,0.1c0.3,0.1,0.8,0,1.4,0l1.4-0.2c0.5-0.1,0.9-0.2,1-0.5c0.1-0.1,0.1-0.3,0-0.4
					C126.5,38.4,126.4,38.3,126.3,38.3z"/>
			</g>
		</g>
		<g>
			<g id="Layer0_48_FILL_00000160900384004310154720000012916723869478168471_">
				<path d="M198.8,31.7c0,0.1,0.1,0.1,0.2,0.2c0.6,0.2,1.2,0.3,1.6,0.3c0.3,0,0.6,0,1-0.1c0.3,0,0.5-0.1,0.6-0.1
					c0.2-0.1,0.3-0.2,0.3-0.3c0.1-0.2,0.1-0.3,0.1-0.5c-0.1-0.2-0.2-0.3-0.4-0.4s-0.4-0.1-0.6-0.1c-0.2,0-0.6,0.1-1.1,0.2l-1,0.3
					c-0.3,0.1-0.5,0.2-0.6,0.3C198.9,31.6,198.8,31.6,198.8,31.7z"/>
			</g>
		</g>
		<g>
			<g id="Layer0_49_FILL_00000141432021247476704670000016230255896703407749_">
				<path d="M210.3,31.1c0-0.3-0.1-0.5-0.3-0.7c-0.2-0.1-0.4-0.2-0.8-0.1c-0.4,0-1,0.2-1.8,0.5c-0.3,0.1-0.5,0.2-0.6,0.3
					c-0.1,0.1-0.1,0.2-0.1,0.3c0,0.1,0,0.2,0.1,0.3c0.1,0.1,0.3,0.1,0.5,0.2c0.6,0,1.1,0,1.3-0.1c0.3-0.1,0.6-0.1,0.6-0.1
					s0.1,0,0.3,0c0.1,0,0.2,0,0.3,0s0.2-0.1,0.3-0.2C210.3,31.3,210.3,31.2,210.3,31.1z"/>
			</g>
		</g>
		<g>
			<g id="Layer0_51_FILL">
				<path d="M129.9,38c-0.1,0.1-0.2,0.2-0.1,0.3c0,0.1,0.1,0.2,0.3,0.3c0.4,0.1,0.7,0.2,1.1,0.1c0.2,0,0.5-0.1,0.8-0.2
					c0.1,0,0.4,0,0.8-0.1c0.3,0,0.6-0.1,0.8-0.2c0.3-0.1,0.4-0.2,0.6-0.4c0.1-0.2,0.2-0.5,0-0.7c-0.1-0.2-0.5-0.3-1-0.2
					c-0.8,0.2-1.3,0.3-1.6,0.4c-0.6,0.2-1,0.3-1,0.3C130.3,37.8,130,37.9,129.9,38z"/>
			</g>
		</g>
		<g>
			<g id="Layer0_52_FILL">
				<path d="M143.1,37.6c0.2-0.3,0.2-0.6,0-0.8c-0.1-0.2-0.3-0.2-0.7-0.3c-0.5-0.1-1.1,0-1.7,0c-0.4,0-0.9,0.2-1.7,0.3
					c-0.3,0.1-0.5,0.2-0.6,0.4s0,0.3,0.2,0.5c0.1,0.1,0.3,0.1,0.5,0.2c0.4,0.1,0.9,0.1,1.7,0.1h1.3c0.2,0,0.4,0,0.5,0
					C142.9,37.9,143,37.8,143.1,37.6z"/>
			</g>
		</g>
		<g>
			<g id="Layer0_53_FILL">
				<path d="M152.5,36.3c-0.2-0.1-0.4-0.2-0.8-0.1c-1,0-2,0.1-3.1,0.3c-0.3,0-0.4,0.1-0.5,0.3s0,0.3,0.2,0.5s0.6,0.3,1,0.4
					c0.4,0,0.9,0.1,1.7,0.1h0.9c0.3,0,0.5,0,0.6-0.1c0.2-0.1,0.4-0.3,0.4-0.6C152.8,36.7,152.7,36.5,152.5,36.3z"/>
			</g>
		</g>
		<g>
			<g id="Layer0_54_FILL">
				<path d="M161.9,36.1c0.1-0.2,0-0.4-0.1-0.5c-0.2-0.3-0.5-0.4-1.1-0.3l-3.2,0.5c-0.3,0.1-0.5,0.2-0.5,0.3c0,0.2,0.1,0.3,0.3,0.4
					c0.4,0.2,1.1,0.3,1.9,0.3c0.4,0,0.8,0,1.3-0.1c0.5,0,0.8-0.1,1-0.3C161.7,36.4,161.8,36.3,161.9,36.1z"/>
			</g>
		</g>
		<g>
			<g id="Layer0_55_FILL">
				<path d="M166.9,35.2c0.1,0.1,0.1,0.2,0.3,0.3s0.4,0.2,0.7,0.2c1.1,0.1,2.3,0,3.5-0.2c0.3-0.1,0.5-0.1,0.7-0.2
					c0.3-0.1,0.4-0.4,0.4-0.6c0-0.2-0.1-0.3-0.2-0.4c-0.1-0.1-0.3-0.2-0.5-0.2c-0.1,0-0.5,0-1,0.1c-0.3,0.1-0.9,0.1-1.7,0.2
					c-0.7,0-1.3,0.1-1.7,0.2c-0.3,0.1-0.5,0.2-0.6,0.4C166.9,35,166.9,35.1,166.9,35.2z"/>
			</g>
		</g>
		<g>
			<g id="Layer0_56_FILL">
				<path d="M181.7,34.1c0.1-0.2,0.1-0.4,0-0.6c-0.2-0.3-0.5-0.4-1.1-0.3c-1.3,0.1-2.2,0.2-2.8,0.4c-0.1,0-0.2,0.1-0.2,0.1
					c-0.1,0.1-0.1,0.2,0,0.4c0,0.1,0.2,0.1,0.3,0.2c0.4,0.2,0.8,0.3,1.3,0.3c0.3,0,0.8,0,1.3,0c0.3,0,0.6-0.1,0.7-0.1
					C181.4,34.5,181.6,34.3,181.7,34.1z"/>
			</g>
		</g>
		<g>
			<g id="Layer0_57_FILL">
				<path d="M189.7,32.5c-0.1,0-0.3,0-0.7,0c-0.5,0-0.8,0-1.1,0c-0.5,0-1.1,0.2-2,0.4c-0.2,0.1-0.2,0.1-0.3,0.2c0,0.1,0,0.2,0,0.3
					c0.1,0.2,0.4,0.4,0.8,0.5c0.2,0,0.5,0.1,1.1,0.1h1.2c0.5,0,0.8,0,1-0.2c0.2-0.1,0.3-0.2,0.4-0.4c0.1-0.2,0.1-0.4,0-0.5
					C190.1,32.7,190,32.6,189.7,32.5z"/>
			</g>
		</g>
		<g>
			<g id="Layer0_58_FILL">
				<path d="M195.4,31.5c-0.1,0-0.3,0-0.4,0l-1.2,0.2c-0.3,0.1-0.5,0.1-0.6,0.3c-0.1,0.2-0.1,0.4,0.1,0.6c0.1,0.1,0.3,0.2,0.6,0.3
					c0.5,0.1,1.1,0.1,1.5-0.1c0.3-0.1,0.6-0.2,0.6-0.4c0.1-0.2,0-0.4-0.1-0.6C195.8,31.6,195.6,31.5,195.4,31.5z"/>
			</g>
		</g>
		<path d="M90.9,14.2c-0.2,0.7-0.2,1.7-0.2,3.2c0.1,5.5,0.2,11.1,0.4,16.8l0.8,0.2L90.9,14.2z"/>
		<path d="M104.6,187.7c-0.1-3.1-0.3-7.4-0.9-13c-0.6-7-1.5-15.5-2.5-25.7l-1.2-0.3c0.2,2,0.4,4.1,0.6,6.2c1.2,12.5,2,23.3,2.5,32.6
			c0,0.3,0.1,0.6,0.2,0.9c0.2,0.3,0.4,0.4,0.6,0.4C104.5,188.8,104.7,188.4,104.6,187.7z"/>
		<path d="M92,36.8l-0.1-2.4l-0.8-0.2c0,1,0.1,2,0.1,3C91.5,37.1,91.8,36.9,92,36.8z"/>
		<path class="st3" d="M101.1,146.5c0.1,0.9,0.2,1.7,0.3,2.5l3,0.7l1.5-6.6l-6.6-1.5l0.7,6.7l0.1,0.5c-0.1-0.7-0.1-1.3-0.2-2
			C100.3,146.7,100.7,146.6,101.1,146.5z"/>
		<path class="st3" d="M101.1,146.5c-0.4,0.1-0.8,0.2-1.1,0.3c0.1,0.7,0.1,1.3,0.2,2l1.2,0.3C101.2,148.2,101.1,147.4,101.1,146.5z"
			/>
	</g>
	<g>
		<path class="st5" d="M139.6,92c-5-10.8-15.3-20.2-25-21c-2.3-3.6-10.2-14.7-18.4-15.4c0,0,2.2,8.5,2.3,8.4c0,0,6.7,3.2,8.7,8.1
			c-10.8,4.7-13.4,21.2-8.1,34.9c5.4,13.9,20.1,22,29.7,18.1C140.1,120.5,145.9,105.5,139.6,92z"/>
		<path class="st5" d="M24.1,84.7c-0.4,1.3-0.8,2.6-1.1,3.9c-3.1,10.3-1.4,19.2-0.9,21.4c0,0.2,0.1,0.4,0.1,0.6
			c-0.4,0.5-4.5,5.7-1.4,17.8c3.3,12.8,12.6,20.6,21.3,23.2c8.7,2.6,8.5,1.2,17.4-2.8c8.9-3.9,6.3-17.3,6.3-17.3
			s-1.7-11.6-14.3-21.9s-22.8-2.3-22.8-2.3c-3.3-9.9-3.1-16.9-0.4-22.6c2.3-4,5.5-7.4,7.7-9.5c2.9-2.5,6.4-5,10.3-7.6
			c15.4-10.2,26-8.7,26-8.7l5.3-7.9l-14.2,2C63.2,53,31.6,62.3,24.1,84.7z"/>
	</g>
	<path class="st6" d="M105.7,144.8c0,0-6.1-27.1-5.7-31.1c0,0-16.4,4.1-34.5,0.5l-1.2,12.6c0,0,4.7,10.1-0.5,17.7
		c0,0,14.2-3.7,17.6,4.1C81.5,148.6,92.9,149.2,105.7,144.8z"/>
	<path class="st7" d="M127.2,126l2.3-0.7c0,0,3.5,21.4-47.1,26.8l-0.6-3.1c-0.8,0.1,43.7-3.8,45.2-23.1"/>
	<g>
		<path class="st8" d="M88,62.6C88,62.6,88,62.6,88,62.6c0.1-0.1,0.2-0.1,0.2-0.2C88.4,61.9,88,62.6,88,62.6z"/>
		<path class="st8" d="M101,87.5c0.9-5.2-1.6-9.6-1.6-9.6l5.5-4.7c-5.4-8.2-7.8-8-9.6-8.6c-1.6-0.5-6.5-1.8-7.2-2
			c-3.2,7.3-12,4-12,4c-0.1,3.4-1.5,4.5-1.5,4.5c-1.1,1.5-0.9,6.1-0.9,6.1c1.4,35.4-8.5,36.9-8.5,36.9c22.2,4.1,36.4-1.4,36.4-1.4
			S100.1,92.7,101,87.5z"/>
		<path class="st8" d="M67,69.1l-0.3-4.6c0,0-6.9,2.2-10.2,7.6l8.5,7.4l2.9-6.1C67.9,73.4,69.2,72,67,69.1z"/>
	</g>
	<path class="st3" d="M115.3,57.3c0,0-1.8,0.5-4.7,8.2c0,0-0.9,0.9-1.5-1c-0.5-1.9-1.6-3.7-2.4-0.9c-0.8,2.8,1.8,6.4,1.8,6.4
		s0.2,0.7-0.3,2.1s-2.5,9.2-2.5,9.2l-2.5-6.7l-3.9,3.3c0,0,1.6,3.6,1.6,5.7s-0.4,19.4-0.1,21.8c0,0,5.7,3.7,8.9,2.8
		c3.2-0.9,5.4-4.6,5.4-5.8s1.1-2.5,0.7-15.6s-0.3-15.5-0.3-15.5"/>
	<g transform="matrix( 1, 0, 0, 1, 0,0) ">
		<g>
			<g id="Layer0_0_FILL">
				<path d="M108.1,62.2c-0.2-0.2-0.4-0.2-0.6-0.2c-0.3,0-0.5,0.2-0.7,0.6c-0.3,0.6-0.4,1.4-0.3,2.4c0.2,1.3,0.6,2.9,1.4,4.7
					c0.2,0.4,0.2,0.6,0.3,0.8c0,0.2,0,0.4-0.1,0.8c-1.6,6.4-3.2,12.7-4.6,19c-0.1,0.3-0.1,0.4,0,0.6c0.1-0.1,0.2-0.2,0.3-0.4
					c0-0.1,0.1-0.2,0.1-0.5c1-4.3,1.7-7.5,2.2-9.4c0.9-3.5,1.7-6.6,2.6-9.3c0.1-0.3,0.2-0.6,0.2-0.7c0-0.3-0.1-0.7-0.3-1.3l-0.8-1.8
					c-0.3-0.7-0.5-1.3-0.7-1.7c-0.2-0.6-0.3-1.2-0.3-1.8c0-0.6,0.1-1.1,0.3-1.5c0.1-0.2,0.2-0.3,0.3-0.3c0.1,0,0.3,0,0.4,0.2
					c0.3,0.3,0.5,0.6,0.7,1c0.1,0.2,0.1,0.4,0.2,0.8c0.1,0.4,0.1,0.6,0.1,0.8c0.1,0.3,0.2,0.5,0.4,0.7c0.2,0.2,0.4,0.3,0.7,0.3
					c0.2,0,0.3,0,0.3-0.2c0-0.1,0-0.2-0.1-0.3c0,0-0.1-0.1-0.3-0.1c-0.2-0.1-0.4-0.3-0.5-0.7c-0.1-0.4-0.1-0.7-0.1-0.9
					C109,63.2,108.7,62.6,108.1,62.2z"/>
			</g>
		</g>
	</g>
	<g transform="matrix( 1, 0, 0, 1, 0,0) ">
		<g>
			<g id="Layer0_2_FILL">
				<path d="M115.7,72.5c-0.1,0-0.1,0-0.2,0.1c-0.1,0-0.1,0.1-0.2,0.2c0,0.1-0.1,0.2-0.1,0.5l0.2,15.2c0.1,3.3,0.1,5.8,0,7.4
					c0,1.5-0.1,2.6-0.2,3.5c-0.1,0.8-0.2,1.5-0.4,2.2c-0.4,2-1.2,3.4-2.2,4.4c-0.4,0.4-1,0.7-1.6,1.1c-0.6,0.3-1.1,0.4-1.7,0.5
					c-0.4,0.1-0.9,0.1-1.5,0c-2.5-0.2-4.5-0.8-5.9-1.8c-0.3-0.2-0.6-0.3-0.7-0.2c-0.1,0.1-0.1,0.2-0.1,0.3c0,0.1,0,0.2,0.1,0.3
					c0.1,0.1,0.2,0.3,0.5,0.4c1,0.6,1.8,1.1,2.5,1.3c0.6,0.2,1.5,0.5,2.6,0.6c1.3,0.2,2.3,0.3,3,0.1c0.7-0.1,1.5-0.4,2.4-0.9
					c0.6-0.3,1.1-0.7,1.5-1c0.4-0.4,0.7-0.9,1.1-1.5c0.8-1.4,1.3-3.2,1.5-5.3c0.1-0.8,0.2-1.7,0.2-2.8c0-0.6,0-1.5,0-2.8L116,73.1
					C116,72.7,115.9,72.5,115.7,72.5z"/>
			</g>
		</g>
	</g>
	<g transform="matrix( 1, 0, 0, 1, 0,0) ">
		<g>
			<g id="Layer0_3_FILL">
				<path d="M104.7,73c-0.1,0-0.2,0.1-0.4,0.2l-4.1,3.6c-0.3,0.3-0.5,0.5-0.6,0.6s-0.1,0.2,0,0.3c0.1,0.1,0.2,0.1,0.3,0
					c0.5-0.3,1.1-0.8,2-1.5l1.6-1.4c0.3-0.2,0.5-0.4,0.5-0.5c0.3-0.3,0.5-0.5,0.6-0.5c0.2-0.1,0.3-0.2,0.3-0.3
					c0.1-0.2,0.1-0.3,0.1-0.4C105,73,104.9,72.9,104.7,73z"/>
			</g>
		</g>
	</g>
	<g>
		<path class="st9" d="M100.6,100.2l-9.9,5c-2.3,1.1-2.5,4.3-0.3,5.7l5.1,3.4l6.2-1.3C101.6,113.1,100.6,101.9,100.6,100.2z"/>
		<path class="st9" d="M71.1,84.1l10.3,8.8c1.9,1.6,1.6,4.5-0.4,5.8L67.7,107L71.1,84.1z"/>
		<path class="st9" d="M91.6,63.7l-5.8,5.6c-1.7,1.6-0.8,4.6,1.6,4.9l10.9,1.5l-1.4-11.5L91.6,63.7z"/>
		<path class="st9" d="M64.2,65.9l0.5,3c0.3,2.1-1.5,3.9-3.6,3.6l-3.9-0.6C57.1,71.9,59.6,67.3,64.2,65.9z"/>
	</g>
	<g transform="matrix( 1, 0, 0, 1, 0,0) ">
		<g>
			<g id="Layer0_5_FILL">
				<path d="M102.9,75c0.1,0.2,0.3,0.8,0.7,1.9l1.6,4.2c0.1,0.2,0.1,0.3,0.1,0.3c0,0.1,0.1,0.2,0.2,0.3c0.1,0.1,0.2,0.1,0.3,0
					c0.1,0,0.2-0.1,0.2-0.2s0-0.3-0.1-0.5l-2.5-6.2c0-0.1-0.1-0.2-0.1-0.2c-0.1-0.1-0.2-0.1-0.3-0.1c-0.1,0-0.1,0.1-0.1,0.2
					C102.9,74.8,102.9,74.9,102.9,75z"/>
			</g>
		</g>
	</g>
	<g transform="matrix( 1, 0, 0, 1, 0,0) ">
		<g>
			<g id="Layer0_6_FILL">
				<path d="M97.2,70.8c-0.1-0.3-0.3-0.4-0.5-0.4c0.8,2.7,1.7,5.5,2.7,8.4c0.3,0.9,0.5,1.6,0.7,2.1c0.4,1.4,0.6,3.1,0.5,5
					c0,0.3-0.1,2-0.2,5.1c-0.1,2-0.1,5-0.1,9c0,2.1,0.1,3.6,0.1,4.4c0.1,1.1,0.2,2.5,0.4,4.1c0.1,0.9,0.3,2.3,0.5,4.1
					c0,0.2,0.1,0.3,0.1,0.5c0.1,0.1,0.2,0.2,0.3,0.2c0.1,0,0.2-0.1,0.3-0.3c0-0.1,0.1-0.3,0-0.5c-0.3-2.2-0.5-3.9-0.6-5
					c-0.3-2.8-0.4-5.8-0.4-9.1c0-2.5,0.1-5.6,0.3-9.1c0.1-1.8,0.1-3,0.1-3.8c0-1.4-0.1-2.7-0.3-3.8c-0.1-0.7-0.3-1.5-0.6-2.3
					c-0.2-0.5-0.4-1.3-0.8-2.2L98.1,73C97.8,72.2,97.5,71.4,97.2,70.8z"/>
			</g>
		</g>
	</g>
	<path d="M66.7,64.6c0,0-4.8-3.2-1.8-8.7c0,0,2.6-2.9,5.8-2.4c0,0,1.3-2.2,4-2c0,0-0.2,2.5,1.2,2.3c0,0,1-0.9-0.9-2.4
		c0,0,0.4-1.5,1.9-1.6c0,0-4.2-2.2-0.6-3.9c0,0-1.7-0.8-1.2-2.9c0.4-2.1,2.6-0.9,2.6-0.9s-2-3.1,1.4-4.9c2.9-1.5,4.4,1.9,4.4,1.9
		s0.2-2.6,3.4-2.4c0,0,1.2,0.4,1.2,1.9c0,0,1-1.3,2.2-0.1s0.3,2.2,0.3,2.2s2-1.4,2.6,1.1c0,0-0.4,1.9-1.5,2.3c0,0,2.1,1.2-0.4,3.6
		c0,0,2.2,1,0.5,3.7c0,0,2.1,0.1,2.3,2.2c0,0-2,1-1.2,1.9c0,0,0.6,0.8,1.2-1.7c0,0,2.1-1.2,3.4,1.4c0.8,1.7-0.6,2.7-0.6,2.7
		s4.8-0.2,2.6,5c0,0,3.2,2-0.2,3.5c0,0-4.5-3.2-10.3-3.7c0,0-4.1-0.2-3.9-7.3c0,0,4.3,0.6,4.4-6.8c0.1-7.3,0-6.2,0-6.2
		s-0.9,0.3-0.9-0.4c0,0-0.8,4.2-4.4,2c0,0-0.6,2.5-2.5,0.9L81.3,46c0,0-2.3-2.6-3.9,0.8c0,0-0.1,2.8,2.5,2.3c0,0,1.7,2.6-0.4,3.9
		c0,0,2.8,1.9-0.5,4.4c0,0,4.5,3.6-1.2,7.2l-1.9,1C75.8,65.6,72,67,66.7,64.6z"/>
	<g transform="matrix( 1, 0, 0, 1, 0,0) ">
		<g>
			<g id="Layer0_7_FILL">
				<path d="M99.9,113.8c0.7-0.2,1.3-0.4,1.8-0.6c0.2-0.1,0.3-0.2,0.3-0.3c0-0.1-0.1-0.2-0.3-0.1c-0.1,0-0.4,0.1-0.9,0.2
					c-0.3,0.1-0.9,0.3-1.7,0.4c-5.6,1.2-11.1,1.8-16.5,1.9c-5.7,0.1-11.2-0.4-16.5-1.6c-0.2-0.1-0.4-0.1-0.5,0
					c-0.1,0-0.2,0.1-0.2,0.1c-0.1,0.1-0.1,0.2-0.1,0.2c0,0.2,0.2,0.3,0.5,0.3c1,0.2,1.9,0.4,2.7,0.6c0.4,0.1,1.2,0.2,2.1,0.3
					c8.1,1,16.3,0.8,24.4-0.5l3-0.5C98.9,114.1,99.5,114,99.9,113.8z"/>
			</g>
		</g>
	</g>
	<path class="st3" d="M67.8,71.7c-1.4-3.6-1-7.4-1-7.4c0-3.7,1.8-4.8,1.8-4.8c2.8-3.3,3,1.7,3,1.7s0.1,5.3,1.4,6.2
		c1.3,0.9,1.4-1.3,1.4-1.3s0.7-2.3,1.3-0.9c0.7,1.4,0.2,4.1-0.7,5.1c-0.9,1.1-1.2,3.2-1.2,3.2s0.6,20.8-0.9,25.8
		s-1.7,17.2-13.2,13.9c-10.5-3-2.3-40.3-2.3-40.3l7.5,6.7c0,0,3.7-5.7,2.7-8"/>
	<g transform="matrix( 1, 0, 0, 1, 0,0) ">
		<g>
			<g id="Layer0_8_FILL">
				<path d="M69.4,58.3c-0.2,0.1-0.4,0.3-0.6,0.5s-0.2,0.5-0.3,0.7c0.1,0,0.3-0.2,0.6-0.4c0.2-0.2,0.4-0.3,0.6-0.3
					c0.2-0.1,0.5,0,0.7,0.2s0.3,0.4,0.5,0.6c0.2,0.3,0.3,0.8,0.4,1.6c0.2,1.2,0.3,2.2,0.5,3c0.2,1.1,0.5,2.1,0.8,2.9
					c0.2,0.5,0.4,0.8,0.7,0.9c0.2,0.1,0.4,0.1,0.6,0s0.3-0.2,0.5-0.3c0.2-0.2,0.3-0.6,0.4-1.1s0.2-0.9,0.3-1.1
					c0.1-0.2,0.2-0.2,0.3-0.2c0.1,0,0.2,0.1,0.3,0.2c0.5,0.7,0.5,1.7,0.2,3c-0.2,0.9-0.5,1.6-0.9,2.1c0,0-0.2,0.3-0.5,0.7
					c-0.2,0.3-0.4,0.5-0.5,0.7s-0.1,0.4-0.1,0.5c1.2-1.1,2-2.5,2.4-4c0.3-1.3,0.3-2.3-0.1-3.2c-0.1-0.2-0.3-0.4-0.4-0.5
					c-0.2-0.1-0.4-0.1-0.6,0s-0.3,0.2-0.5,0.3c-0.2,0.2-0.3,0.6-0.3,1.1c-0.1,0.5-0.2,0.9-0.4,1.1c-0.1,0.2-0.3,0.2-0.4,0.2
					s-0.2-0.1-0.3-0.3c-0.6-1.7-1-3.4-1.2-5.1C72,61.3,72,60.9,72,60.9c-0.1-0.5-0.2-0.9-0.3-1.2c-0.1-0.4-0.3-0.7-0.6-0.9
					c-0.2-0.2-0.4-0.3-0.7-0.3C69.9,58.2,69.7,58.2,69.4,58.3z"/>
			</g>
		</g>
	</g>
	<g transform="matrix( 1, 0, 0, 1, 0,0) ">
		<g>
			<g id="Layer0_9_FILL">
				<path d="M68.4,62.2c-0.3,0-0.5,0.1-0.7,0.3s-0.4,0.4-0.5,0.6c-0.3,0.5-0.5,1-0.6,1.5c0,0.3-0.1,0.6-0.1,1.1c0,0.9,0,1.7,0.1,2.4
					c0.1,0.9,0.2,1.6,0.5,2.3c0.1,0.3,0.3,0.7,0.5,1.3c0.2,0.5,0.3,1,0.2,1.3c0,0.1,0,0.3-0.1,0.6c0,0.2,0,0.4,0.1,0.5
					c0.4-0.6,0.5-1.3,0.4-2.1c0-0.3-0.2-0.7-0.3-1.1c-0.2-0.5-0.3-0.9-0.4-1.1c-0.2-0.8-0.4-1.7-0.5-3c0-0.9,0-1.5,0.1-2
					c0.1-0.7,0.4-1.3,0.8-1.8c0.1-0.1,0.2-0.2,0.3-0.2c0.1,0,0.2,0,0.2,0c0.1,0.1,0.1,0.1,0.2,0.2c0.1,0.1,0.1,0.3,0.1,0.5
					c0,0.3,0,0.7,0,1.3c0,0.5,0,0.9,0.1,1.3c0.1,1,0.4,1.8,0.9,2.4c0.1,0.1,0.3,0.4,0.8,0.8c0.3,0.3,0.5,0.6,0.7,0.9
					c0,0,0.1,0.2,0.2,0.5c0.1,0.2,0.1,0.3,0.2,0.4s0.2,0.2,0.2,0.2c0.1,0,0.2-0.1,0.2-0.3c0.1-0.5-0.1-1-0.5-1.5
					c-0.1-0.1-0.3-0.3-0.6-0.6c-0.3-0.3-0.5-0.5-0.6-0.6c-0.7-0.9-1-2.1-0.9-3.8c0-0.6,0-1.1-0.1-1.3s-0.2-0.4-0.4-0.6
					C68.8,62.3,68.6,62.2,68.4,62.2z"/>
			</g>
		</g>
	</g>
	<g transform="matrix( 1, 0, 0, 1, 0,0) ">
		<g>
			<g id="Layer0_10_FILL">
				<path d="M69.1,60.3c0,0.1,0.1,0.3,0.1,0.5c0.1,0.6,0.2,1.5,0.2,2.7v2.6c0,0.4,0,0.7,0.1,0.9c0,0.1,0.1,0.2,0.1,0.2
					c0-0.1,0.1-0.4,0.1-0.6l0.2-3c0.1-1.2,0.1-2,0-2.5c0-0.4-0.1-0.8-0.3-1.1c-0.1-0.2-0.2-0.4-0.4-0.5c-0.3-0.2-0.6-0.2-1-0.1
					c-0.2,0.1-0.4,0.1-0.5,0.3c-0.1,0.1-0.3,0.3-0.4,0.5c-0.7,1.3-1,2.7-1,4.1c0,0.3,0,0.7,0.1,1.1c0.1,0.1,0.1,0,0.2-0.1
					c0,0,0-0.1,0-0.2c0-1,0.1-1.8,0.2-2.4c0.2-0.9,0.5-1.6,0.9-2.3c0.2-0.3,0.4-0.4,0.5-0.5c0.2-0.1,0.3-0.1,0.5,0
					C69,60.1,69.1,60.1,69.1,60.3z"/>
			</g>
		</g>
	</g>
	<g transform="matrix( 1, 0, 0, 1, 0,0) ">
		<g>
			<g id="Layer0_11_FILL">
				<path d="M57.4,73c-0.2,0-0.3,0.2-0.4,0.5c-2.2,8.5-3.2,17.4-2.9,26.7c0,1.3,0.1,2.3,0.2,3.2c0.2,1.2,0.5,2.5,1,4.2
					c0.3,1,0.6,1.8,1,2.5c0.4,0.8,0.9,1.6,1.6,2.2c0.7,0.7,1.4,1.2,2.2,1.6s1.7,0.7,2.6,0.8c0.9,0.1,1.8,0,2.7-0.3
					c1-0.3,1.9-0.8,2.7-1.6c0.8-0.7,1.4-1.5,2-2.5c0.5-0.8,0.9-1.8,1.3-2.9c0.3-0.8,0.6-1.8,0.9-3.1l0.4-1.7
					c0.1-0.6,0.2-1.1,0.2-1.4c0.6-3.7,0.9-8.1,0.9-13.4c0-6,0-10.5,0-13.4c0-0.6,0-1.1,0.1-1.5c0.1-0.5,0.5-1.5,1.2-2.8
					C75.7,69,76,68,76,67.3c-0.1,0.6-0.4,1.3-0.8,2.2c-0.3,0.6-0.5,1-0.7,1.3c-0.1,0.1-0.2,0.2-0.4,0.5c-0.2,0.2-0.3,0.4-0.4,0.5
					c-0.3,0.5-0.4,1.2-0.4,2.1c0,2.5-0.1,6.3-0.1,11.3c-0.1,4.3-0.3,8.1-0.6,11.3c-0.4,3.8-0.9,6.9-1.7,9.3c-0.7,2.1-1.5,3.8-2.6,5
					c-0.6,0.7-1.3,1.3-2.2,1.8c-0.9,0.5-1.7,0.8-2.6,0.8c-0.7,0.1-1.4,0-2.1-0.2c-0.7-0.2-1.3-0.5-1.9-0.9c-1.2-0.8-2.1-1.8-2.7-3.2
					c-0.3-0.5-0.5-1.2-0.8-2c-0.5-1.5-0.8-3-1-4.4c-0.1-0.6-0.1-1.5-0.2-2.8c-0.3-8.9,0.6-17.6,2.8-26.2c0.1-0.3,0.1-0.5,0.1-0.6
					s-0.1-0.2-0.2-0.3C57.6,73,57.5,73,57.4,73z"/>
			</g>
		</g>
	</g>
	<g transform="matrix( 1, 0, 0, 1, 0,0) ">
		<g>
			<g id="Layer0_12_FILL">
				<path d="M56.2,72c-0.1,0.1-0.1,0.2,0.1,0.3c0.4,0.4,1.2,1.1,2.4,2.3c1.5,1.4,2.7,2.4,3.4,3.1c0.7,0.6,1.1,1,1.2,1.1
					c0.5,0.4,0.8,0.8,1.1,1.1c0.2,0.3,0.4,0.4,0.6,0.3c0.1,0,0.2-0.1,0.2-0.2s0-0.2,0-0.3c-0.1-0.1-0.2-0.3-0.4-0.5
					c-2-1.5-3.8-3-5.5-4.6l-2.8-2.5C56.4,72,56.3,72,56.2,72z"/>
			</g>
		</g>
	</g>
	<g transform="matrix( 1, 0, 0, 1, 0,0) ">
		<g>
			<g id="Layer0_13_FILL">
				<path d="M57.7,71c0.5-0.6,0.8-0.9,0.9-1c0.2-0.2,0.5-0.5,0.8-0.8c1-0.9,2.1-1.7,3.2-2.4c0.6-0.4,1.3-0.7,2-1.1
					c0.6-0.3,1.2-0.5,1.6-0.6c0.2,0,0.3-0.1,0.3-0.1c0.1,0,0.1-0.1,0.1-0.1c0-0.1,0-0.1,0-0.2c-0.1-0.1-0.2-0.1-0.3-0.1
					c-0.2,0-0.4,0.1-0.7,0.2c-1.4,0.6-2.8,1.3-4.1,2.2c-2.1,1.4-3.8,3.1-5.1,4.9c-0.1,0.2-0.1,0.3-0.1,0.4h0.1L57.7,71z"/>
			</g>
		</g>
	</g>
	<g transform="matrix( 1, 0, 0, 1, 0,0) ">
		<g>
			<g id="Layer0_14_FILL">
				<path d="M59.2,71.8c-0.1-0.1-0.1-0.1-0.2-0.1c-0.1,0-0.2,0-0.2,0.1s0,0.2,0.1,0.3c0.6,0.8,1.4,1.7,2.6,2.8
					c1.2,1.1,2.1,1.9,2.7,2.4c0.3,0.3,0.5,0.5,0.7,0.7s0.2,0.3,0.3,0.3c0.1,0.1,0.2,0.1,0.4,0.1c0.1,0,0.2-0.1,0.3-0.2
					C66,78.1,66,78,66,77.9c0-0.1-0.2-0.2-0.3-0.4c-0.4-0.3-0.7-0.6-1.1-0.9c-1.5-1.3-3.1-2.7-4.6-4.2
					C59.6,72.1,59.4,71.9,59.2,71.8z"/>
			</g>
		</g>
	</g>
	<g transform="matrix( 1, 0, 0, 1, 0,0) ">
		<g>
			<g id="Layer0_15_FILL">
				<path d="M66.9,75.6c-0.1,0.2-0.6,1.3-1.5,3.2c-1.4,3-3.3,7.3-5.7,13l-2.2,5.3c-0.1,0.2-0.1,0.4,0,0.5c0,0.1,0.1,0.1,0.2,0.1
					c0.1,0,0.2,0,0.3-0.1s0.2-0.3,0.3-0.5c2.1-5.6,5.1-12.7,9-21.3c0.3-0.7,0.6-1.3,0.7-1.7c0.2-0.7,0.3-1.3,0.2-1.8
					C67.9,73.3,67.4,74.4,66.9,75.6z"/>
			</g>
		</g>
	</g>
	<g transform="matrix( 1, 0, 0, 1, 0,0) ">
		<g>
			<g id="Layer0_16_FILL">
				<path d="M78.7,66.6c-0.2,0.1-0.3,0.2-0.3,0.3c0,0.2,0,0.3,0.2,0.4c0.1,0.1,0.2,0.1,0.4,0.1c1.7,0.3,3.4,0,5-0.7s2.9-1.7,3.9-3.2
					c0.3-0.3,0.4-0.6,0.4-0.9c0-0.1,0-0.2,0-0.2c0-0.1-0.1-0.1-0.2-0.1c0,0-0.1,0.1-0.2,0.1c-1,1.5-2.3,2.6-3.8,3.4
					c-1.6,0.8-3.3,1.1-5,0.8C79,66.6,78.8,66.6,78.7,66.6z"/>
			</g>
		</g>
	</g>
	<g transform="matrix( 1, 0, 0, 1, 0,0) ">
		<g>
			<g id="Layer0_17_FILL">
				<path d="M99.9,113.5c-0.1,0-0.2,0-0.2,0c-0.1,0.1-0.2,0.3-0.2,0.6c0.7,4.9,1.3,8.6,1.9,11.3c0.2,1,0.5,2.4,0.9,4.4
					s0.9,4.4,1.5,7.2c0.3,1.6,0.8,4,1.4,7.2c0,0.2,0.1,0.4,0.2,0.5s0.2,0.1,0.4,0.1c0.2,0,0.3-0.1,0.3-0.2c0.1-0.1,0.1-0.4,0-0.7
					c-0.3-1.2-0.9-3.8-1.7-7.8l-0.6-2.7c-0.5-2.1-0.8-3.6-1-4.7c-1-4.8-1.9-9.7-2.6-14.6c0-0.2-0.1-0.3-0.1-0.4
					C100,113.6,100,113.6,99.9,113.5z"/>
			</g>
		</g>
	</g>
	<g transform="matrix( 1, 0, 0, 1, 0,0) ">
		<g>
			<g id="Layer0_18_FILL">
				<path d="M65.3,114.1c-0.1,0.4-0.2,1-0.3,1.7l-0.5,3.7c0,0.2-0.1,1.2-0.1,2.7c-0.1,1.1-0.1,2-0.3,2.7c-0.1,0.3,0,0.5,0,0.6
					c0.1,0.1,0.2,0.2,0.4,0.2c0.2,0,0.3-0.1,0.4-0.2s0.1-0.3,0.1-0.6c0-0.2,0-0.5,0-0.8c0-0.4,0.1-0.7,0.1-0.8
					c0-0.4,0.1-0.8,0.1-1.4c0-0.8,0-1.2,0-1.4c0-0.5,0.1-1.6,0.3-3.2c0.2-1.3,0.2-2.4,0.2-3.2c0-0.1-0.1-0.2-0.1-0.2
					C65.4,113.9,65.3,114,65.3,114.1z"/>
			</g>
		</g>
	</g>
	<g transform="matrix( 1, 0, 0, 1, 0,0) ">
		<g>
			<g id="Layer0_19_FILL">
				<path d="M78.7,45c-0.4,0.2-0.8,0.5-1.1,0.8c-0.3,0.4-0.5,0.8-0.5,1.2c0,0.5,0.1,1,0.5,1.5c0.4,0.6,0.9,1,1.5,1.1
					c0.4,0,0.8,0,1.2-0.2c0.4-0.2,0.7-0.5,0.7-0.8c0-0.1,0-0.2,0-0.3c-0.1-0.1-0.1-0.2-0.2-0.2s-0.2,0-0.3,0.1c0,0-0.1,0.1-0.2,0.2
					c-0.2,0.2-0.4,0.4-0.7,0.5c-0.3,0.1-0.6,0.1-0.8,0c-0.4-0.1-0.7-0.4-1-0.9c-0.2-0.4-0.2-0.7-0.2-1c0.1-0.4,0.3-0.7,0.6-1.1
					c0.2-0.2,0.5-0.4,0.8-0.5s0.6-0.2,0.9-0.1c0.1,0,0.3,0.1,0.5,0.2c0.3,0.2,0.5,0.4,0.8,0.7c0.1,0.2,0.3,0.5,0.6,0.9
					c0.1,0.1,0.1,0.1,0.1,0.1v-0.1c-0.2-0.7-0.5-1.3-0.9-1.7c-0.2-0.2-0.5-0.4-0.8-0.5s-0.6-0.1-0.9-0.1
					C79.1,44.8,78.9,44.9,78.7,45z"/>
			</g>
		</g>
	</g>
	<g transform="matrix( 1, 0, 0, 1, 0,0) ">
		<g>
			<g id="Layer0_20_FILL">
				<path d="M80.8,51c0-0.4-0.1-0.7-0.4-1.1c-0.2-0.3-0.5-0.6-0.8-0.8c-0.1-0.1-0.2-0.1-0.2,0v0.1c0,0.1,0,0.1,0.1,0.1
					c0.5,0.5,0.7,1.1,0.7,1.6c0,0.3-0.1,0.6-0.2,0.9c-0.2,0.3-0.4,0.5-0.7,0.6c-0.2,0.1-0.3,0.1-0.3,0.1c-0.1,0.1-0.2,0.2-0.2,0.3
					s0.1,0.2,0.4,0.3c0.4,0.2,0.7,0.4,0.9,0.8c0.2,0.4,0.3,0.8,0.2,1.2c-0.1,0.4-0.2,0.8-0.5,1.1s-0.6,0.5-1,0.7
					c-0.3,0.1-0.4,0.2-0.4,0.3s0.1,0.2,0.2,0.3c0.1,0,0.2,0.1,0.3,0.1c0.4,0.1,0.7,0.4,0.9,0.9c0.3,0.5,0.4,1.1,0.4,1.8
					c0,0.6-0.2,1.2-0.4,1.8c-0.2,0.5-0.5,0.9-0.8,1.2c-0.3,0.2-0.7,0.4-1.2,0.7c-0.2,0.1-0.3,0.2-0.3,0.3c0,0.1,0,0.2,0,0.3
					c0.1,0.1,0.1,0.1,0.2,0.2c0.1,0,0.3,0,0.5-0.1c0.5-0.2,0.9-0.5,1.3-0.9s0.7-0.9,0.9-1.4c0.3-0.9,0.4-1.8,0.3-2.7
					c-0.2-0.9-0.6-1.7-1.3-2.3c0.4-0.2,0.7-0.5,1-0.9s0.4-0.8,0.5-1.2c0-0.4,0-0.9-0.2-1.3c-0.2-0.4-0.5-0.8-0.8-1
					c0.3-0.2,0.5-0.5,0.7-0.9C80.8,51.7,80.8,51.3,80.8,51z"/>
			</g>
		</g>
	</g>
	<g transform="matrix( 1, 0, 0, 1, 0,0) ">
		<g>
			<g id="Layer0_21_FILL">
				<path d="M80.2,36.7c-0.5,0-0.9,0.1-1.3,0.3c-0.5,0.2-0.9,0.6-1.3,1.2c-0.4,0.5-0.6,1-0.7,1.6s0,1.2,0.2,1.9
					c-0.3,0-0.6,0-0.9,0.1s-0.6,0.3-0.8,0.5c-0.2,0.2-0.4,0.5-0.5,0.8s-0.1,0.6-0.1,0.9c0.1,0.6,0.5,1.2,1.1,2
					c-0.5,0.3-0.9,0.7-1.1,1c-0.2,0.5-0.2,1,0.1,1.5c0.2,0.4,0.5,0.8,1,1.2c-0.7,0.3-1.2,0.9-1.4,1.6c-0.7-0.1-1.4,0-2.2,0.3
					c-0.7,0.3-1.2,0.8-1.6,1.4c-0.1,0.1-0.1,0.2-0.2,0.2s-0.2,0.1-0.3,0c-1.1,0-2.2,0.2-3.2,0.8s-1.8,1.3-2.4,2.3s-0.8,2-0.8,3.2
					s0.3,2.2,0.9,3.1c0.2,0.4,0.5,0.6,0.7,0.6c0-0.1-0.1-0.2-0.2-0.5c-0.6-0.9-1-1.9-1-3c-0.1-1.1,0.2-2.2,0.7-3.1
					c0.5-0.9,1.3-1.7,2.3-2.2s2-0.8,3.1-0.7c-0.2,0.8-0.3,1.6,0,2.4c0.1,0.4,0.3,0.7,0.5,1c0.3,0.3,0.6,0.5,1,0.5
					c0.3,0,0.6-0.1,0.9-0.3s0.4-0.5,0.5-0.8c0.2-0.6,0-1.2-0.4-1.8c-0.3-0.4-0.8-0.8-1.5-1.2c0.3-0.5,0.7-0.9,1.2-1.2
					s1.1-0.4,1.7-0.3c0,0.5,0.1,1,0.2,1.3c0.2,0.5,0.5,0.8,0.9,0.9c0.2,0.1,0.4,0.1,0.7,0c0.2-0.1,0.4-0.2,0.5-0.4s0.2-0.4,0.1-0.7
					c0-0.2-0.2-0.5-0.3-0.7c-0.3-0.4-0.7-0.7-1.2-1c0.2-0.3,0.3-0.6,0.6-0.9c0.3-0.3,0.6-0.4,0.9-0.4c0.2,0,0.3,0,0.3,0
					c0.1,0,0.2-0.1,0.3-0.2c0.1-0.1,0.1-0.2,0-0.3c0-0.1-0.1-0.2-0.2-0.2c-0.1-0.1-0.3-0.1-0.5-0.2c-0.5-0.2-0.9-0.4-1.1-0.8
					c-0.3-0.4-0.4-0.9-0.2-1.3c0.1-0.2,0.2-0.4,0.4-0.6c0.2-0.2,0.4-0.2,0.6-0.3c0.1,0,0.2,0,0.3,0c0.1,0,0.2-0.1,0.2-0.1
					c0.1-0.1,0-0.2-0.1-0.3s-0.2-0.1-0.3-0.2c-0.6-0.3-1-0.8-1.2-1.4C75,43.9,75,43.6,75,43.3c0.1-0.3,0.2-0.6,0.4-0.8
					c0.2-0.2,0.5-0.4,0.8-0.4c0.3-0.1,0.6,0,0.9,0.1c0.2,0.1,0.4,0.2,0.5,0.1c0.1-0.1,0.1-0.3-0.1-0.5c-0.3-0.5-0.4-1.1-0.4-1.7
					c0-0.6,0.2-1.2,0.5-1.6c0.3-0.5,0.8-0.8,1.3-1.1c0.6-0.2,1.1-0.3,1.7-0.3c0.4,0,0.8,0.2,1.1,0.4c0.3,0.2,0.6,0.6,1,1.2l0.4,0.6
					c0.1,0.1,0.1,0.1,0.2,0.1s0.2-0.1,0.3-0.4c0.1-0.6,0.4-1.1,0.8-1.5c0.5-0.4,1-0.6,1.6-0.6s1,0.2,1.3,0.5c0.2,0.3,0.3,0.6,0.3,1
					c0,0.3,0,0.5,0.2,0.5c0.1,0,0.1,0,0.2-0.1c0,0,0.1-0.1,0.2-0.2c0.2-0.3,0.6-0.3,1-0.2c0.5,0.1,0.8,0.4,1.1,0.8
					c0.1,0.2,0.2,0.4,0.2,0.7c0,0.2,0,0.5-0.2,0.7c-0.1,0.2-0.2,0.3-0.2,0.3c0,0.2,0,0.2,0.1,0.3c0.1,0,0.1,0,0.2,0
					c0,0,0.1-0.1,0.2-0.2c0.1-0.1,0.4-0.2,0.7-0.2c0.4,0,0.7,0.1,1,0.3s0.5,0.5,0.5,0.8c0.1,0.3,0,0.7-0.3,1.2
					c-0.2,0.5-0.5,0.8-0.7,1c-0.2,0.1-0.4,0.2-0.8,0.4c-0.1,0-0.2,0.1-0.2,0.1c-0.1,0.1-0.1,0.1-0.1,0.2c0,0.1,0.1,0.1,0.2,0.1
					c0.4,0,0.8-0.1,1.1-0.4c0.3-0.2,0.5-0.5,0.8-0.9c0.5-0.7,0.6-1.4,0.4-2c-0.2-0.5-0.5-0.8-0.9-1s-0.9-0.3-1.4-0.2
					c0-0.4,0-0.7-0.2-1.1c-0.2-0.3-0.4-0.6-0.7-0.8c-0.3-0.2-0.6-0.3-1-0.4c-0.4,0-0.7,0-1.1,0.2c0-0.4-0.2-0.7-0.6-1
					c-0.3-0.3-0.7-0.5-1.1-0.5c-0.4-0.1-0.8,0-1.2,0.1c-0.4,0.1-0.7,0.3-1.1,0.6c-0.5,0.4-0.8,0.8-0.9,1.3c-0.3-0.4-0.5-0.7-0.7-0.9
					c-0.3-0.3-0.6-0.5-0.9-0.7C81.4,36.8,80.9,36.7,80.2,36.7 M75.2,52.8c-0.1-0.2-0.1-0.4-0.1-0.5c0.3,0.2,0.5,0.4,0.7,0.7
					c0.1,0.2,0.1,0.3,0.1,0.5c-0.1,0-0.2,0-0.3-0.1l-0.3-0.2C75.3,53,75.2,52.9,75.2,52.8 M72.6,55.2l0.1,0.2c0,0.2,0.1,0.4,0.1,0.4
					v0.3c0,0.2-0.1,0.3-0.2,0.4c-0.1,0.1-0.2,0.2-0.3,0.2c-0.1,0.1-0.2,0.1-0.3,0.1l-0.2-0.1c-0.1-0.1-0.2-0.3-0.3-0.3L71.3,56
					c-0.2-0.4-0.3-0.8-0.3-1.3v-0.2l0.1-0.6c0.2,0.1,0.3,0.1,0.4,0.2l0.3,0.2c0.1,0.1,0.2,0.1,0.2,0.2l0.1,0.1
					C72.4,54.9,72.5,55.1,72.6,55.2z"/>
			</g>
		</g>
	</g>
	<g transform="matrix( 1, 0, 0, 1, 0,0) ">
		<g>
			<g id="Layer0_22_FILL">
				<path d="M82.6,45.3c-0.2,0-0.3-0.1-0.4-0.2c-0.1-0.2-0.1-0.3-0.2-0.3c-0.1-0.1-0.2-0.2-0.3-0.1l-0.1,0.1l-0.3,0.9
					c-0.1,0.2-0.1,0.4,0.1,0.5c0.1,0,0.1,0,0.2-0.1s0.1-0.1,0.1-0.2c0-0.1,0-0.2,0.1-0.2c0-0.1,0.1-0.2,0.1-0.2
					c0.2,0.2,0.4,0.3,0.7,0.3c0.3,0,0.5,0,0.8-0.1c0.5-0.2,0.8-0.6,1-1.2c0.3,0.3,0.8,0.6,1.3,0.6c0.5,0.1,1,0,1.4-0.2
					s0.8-0.5,1.1-0.9c0.3-0.4,0.5-0.9,0.6-1.4c0.1,0.1,0.2,0.2,0.4,0.3c0.2,0.1,0.4,0.1,0.5,0c0.4-0.1,0.7-0.3,1-0.6
					s0.4-0.7,0.3-1.1c0-0.1-0.1-0.2-0.1-0.2c-0.1,0-0.1,0.1-0.2,0.2c-0.1,0.5-0.4,0.8-0.9,1c-0.2,0.1-0.3,0.1-0.5,0.1
					S89,42.2,88.9,42c0-0.1-0.1-0.2-0.1-0.2c0-0.1-0.1-0.1-0.1-0.1c-0.1,0-0.2,0.1-0.3,0.3c-0.1,0.7-0.4,1.2-0.8,1.7
					c-0.5,0.5-1.1,0.8-1.7,0.8c-0.3,0-0.6-0.1-0.9-0.2c-0.3-0.2-0.5-0.4-0.7-0.6c-0.1-0.1-0.2-0.2-0.2-0.2c-0.1-0.1-0.2-0.1-0.3-0.1
					c0.2,0.1,0.2,0.2,0.2,0.5c0.1,0.3,0,0.6-0.2,0.9c-0.2,0.3-0.4,0.4-0.7,0.5C82.9,45.3,82.7,45.3,82.6,45.3z"/>
			</g>
		</g>
	</g>
	<g transform="matrix( 1, 0, 0, 1, 0,0) ">
		<g>
			<g id="Layer0_23_FILL">
				<path d="M89.6,42.9c0,0,0,0.1,0,0.2c0,2.4-0.1,4.6-0.3,6.8c-0.1,0.9-0.2,1.6-0.3,2.2c-0.2,0.8-0.5,1.4-1,1.9
					c-0.6,0.7-1.3,1.1-2.3,1.2c-0.4,0-0.5,0.2-0.5,0.3s0.1,0.2,0.2,0.3c0.1,0,0.2,0,0.4,0c0.9-0.1,1.6-0.4,2.3-1
					c0.7-0.6,1.2-1.5,1.5-2.6c0.2-0.7,0.3-1.8,0.4-3.1c0.1-2.4,0.1-4.5-0.1-6.2c0-0.1,0-0.2-0.1-0.2C89.7,42.8,89.7,42.8,89.6,42.9
					C89.6,42.8,89.6,42.9,89.6,42.9z"/>
			</g>
		</g>
	</g>
	<g transform="matrix( 1, 0, 0, 1, 0,0) ">
		<g>
			<g id="Layer0_24_FILL">
				<path d="M92.1,44.8c0.1,0.2,0.2,0.4,0.2,0.6c0,0.4-0.1,0.8-0.4,1.3s-0.5,0.8-0.9,0.9c-0.2,0-0.2,0.1-0.3,0.1
					c-0.1,0.1-0.1,0.2-0.1,0.2c0,0.1,0.2,0.1,0.4,0c0.2,0,0.3,0,0.5,0.1s0.3,0.2,0.4,0.4c0.3,0.5,0.4,1,0.2,1.7
					c-0.1,0.5-0.4,1-0.9,1.5c-0.1,0.2-0.1,0.3-0.1,0.3s0.1,0,0.3,0c0.2-0.1,0.5-0.2,0.8-0.1c0.3,0.1,0.5,0.2,0.7,0.4
					c0.4,0.3,0.6,0.8,0.8,1.4c-0.6,0.2-1.1,0.6-1.3,1.2c-0.2,0.4-0.2,0.7,0,0.9s0.4,0.3,0.7,0.2c0.2-0.1,0.4-0.2,0.6-0.4
					c0.4-0.5,0.5-1,0.5-1.5c0.5-0.1,0.9-0.1,1.4,0.1s0.9,0.4,1.1,0.8c0.3,0.4,0.4,0.8,0.5,1.3c0,0.5,0,1-0.3,1.4
					c-0.1,0.2-0.2,0.3-0.3,0.4c-0.2,0.1-0.4,0.2-0.5,0.2c-0.2,0.1-0.4,0.3-0.4,0.5c0,0.1,0,0.2,0.1,0.3s0.1,0.2,0.3,0.2
					c0.1,0,0.2,0,0.4-0.1c0.3-0.2,0.5-0.4,0.6-0.7c0.5,0,1,0.1,1.4,0.3c0.5,0.2,0.8,0.6,1.1,1c0.2,0.4,0.4,0.9,0.3,1.4
					c0,0.5-0.2,1-0.4,1.4c-0.1,0.2-0.2,0.3-0.3,0.3c-0.2,0-0.3,0.1-0.4,0.1c-0.1,0.1-0.1,0.2-0.1,0.3s0.1,0.2,0.2,0.3
					c0.1,0,0.1,0,0.2,0s0.1,0,0.2,0c0.2,0,0.4,0.1,0.6,0.2c0.2,0.1,0.3,0.3,0.4,0.5c0.1,0.3,0.2,0.6,0.1,0.9s-0.2,0.6-0.5,0.8
					c-0.2,0.1-0.3,0.2-0.3,0.2c-0.1,0.1-0.2,0.2-0.1,0.4c0.1,0.1,0.2,0.2,0.3,0.2c0.1,0,0.2-0.1,0.3-0.1c0.3-0.2,0.5-0.5,0.6-0.8
					c0.2-0.3,0.2-0.7,0.2-1s-0.2-0.6-0.4-0.9c-0.2-0.3-0.5-0.5-0.8-0.6c0.4-0.5,0.6-1,0.7-1.6s0-1.2-0.3-1.7c-0.2-0.5-0.6-1-1.1-1.3
					s-1.1-0.5-1.6-0.6c0.3-0.5,0.4-1.1,0.3-1.7c0-0.6-0.2-1.1-0.6-1.6c-0.3-0.5-0.8-0.8-1.4-1s-1.1-0.2-1.7-0.1
					c-0.2-0.6-0.4-1.1-0.8-1.4c-0.4-0.4-0.9-0.6-1.5-0.6c0.4-0.7,0.7-1.4,0.7-2c0-0.4-0.1-0.7-0.3-1c-0.2-0.3-0.4-0.6-0.8-0.7
					c0.4-0.4,0.7-0.8,0.9-1.2c0.2-0.5,0.3-1,0.1-1.5c-0.1-0.2-0.2-0.5-0.4-0.6c-0.2-0.2-0.4-0.3-0.7-0.3c-0.1,0-0.1,0-0.2,0.1
					c-0.1,0-0.1,0.1-0.1,0.1c0,0.1,0.1,0.1,0.3,0.2C91.8,44.5,92,44.6,92.1,44.8 M93.6,55.1c-0.2,0.2-0.3,0.3-0.5,0.3
					c-0.1,0-0.1,0-0.1-0.1l-0.1-0.1c0-0.2,0.1-0.3,0.2-0.5c0.1-0.1,0.3-0.3,0.5-0.6c0.2-0.1,0.3-0.2,0.4-0.2
					C94,54.4,93.8,54.8,93.6,55.1z"/>
			</g>
		</g>
	</g>
	<g transform="matrix( 1, 0, 0, 1, 0,0) ">
		<g>
			<g id="Layer0_25_FILL">
				<path d="M87.7,52.3c0.1-0.2,0.1-0.3,0-0.4c0,0-0.1-0.1-0.3-0.1c-0.1-0.1-0.3-0.2-0.6-0.4c-0.4-0.3-0.9-0.7-1.5-1.1
					c-1-0.6-1.5-1-1.6-1c-0.1-0.1-0.1-0.1-0.2-0.1c0-0.1-0.1-0.2-0.1-0.2c-0.1-0.1-0.2-0.1-0.3,0c-0.1,0-0.1,0.1-0.2,0.2v0.1
					c0,0,0,0.1,0,0.2c-0.1,1.4,0.1,2.6,0.6,3.4c0.3,0.5,0.6,0.8,1,0.9c0.4,0.2,0.9,0.2,1.3,0.1c0.4-0.1,0.8-0.4,1.2-0.7
					C87.4,52.9,87.5,52.6,87.7,52.3 M86.3,51.5c0.1,0.1,0.3,0.3,0.8,0.6l0.1,0.1c0,0,0,0.1-0.1,0.2c-0.3,0.4-0.6,0.7-1,0.9
					c-0.5,0.2-0.9,0.2-1.3,0.1c-0.4-0.2-0.7-0.5-0.9-1c-0.3-0.7-0.4-1.5-0.4-2.6l1.8,1.2C85.9,51.2,86.2,51.4,86.3,51.5z"/>
			</g>
		</g>
	</g>
	<g transform="matrix( 1, 0, 0, 1, 0,0) ">
		<g>
			<g id="Layer0_26_FILL">
				<path d="M114.8,103.1c-0.1,0-0.1,0.2-0.1,0.4c0.3,1.2,0.5,2.1,0.6,2.7c0.1,1.1,0,2-0.3,2.7c-0.1,0.2-0.2,0.4-0.3,0.6
					c-0.2,0.3-0.6,0.5-1,0.6s-0.8,0.1-1.2,0c-0.6-0.1-1.3-0.5-2.2-1.1c-0.2-0.2-0.4-0.2-0.6-0.3c-0.1,0-0.2,0-0.3,0.1
					c-0.1,0.1-0.1,0.2-0.1,0.3c0,0.1,0.1,0.2,0.3,0.3c0.8,0.6,1.5,1.1,2.1,1.3c0.9,0.3,1.7,0.3,2.4,0c0.7-0.3,1.2-0.8,1.5-1.6
					c0.3-0.6,0.4-1.3,0.4-2.2c0-0.9-0.2-1.8-0.5-2.9c-0.1-0.4-0.3-0.7-0.4-0.9C115,103.1,114.9,103,114.8,103.1z"/>
			</g>
		</g>
	</g>
	<g transform="matrix( 1, 0, 0, 1, 0,0) ">
		<g>
			<g id="Layer0_27_FILL">
				<path d="M117,86.5c0,0.1,0,0.2,0.1,0.3c2.8,2.8,5.2,6,7.1,9.6s3.2,7.4,4,11.3c0.2,1.2,0.4,2.3,0.3,3.1c0,0.6-0.1,1.3-0.2,2
					c-0.2,1.5-0.6,2.8-1.1,3.9c-0.6,1.3-1.4,2.4-2.4,3.1c-1.4,1.1-3.1,1.6-5.2,1.6c-1.5,0-3.3-0.3-5.4-1c-0.5-0.2-0.9-0.3-1.1-0.3
					c-0.4-0.1-0.8-0.1-1.1-0.1c1.2,1.1,2.8,1.8,4.9,2.2c2,0.4,3.7,0.4,5.3,0c1.9-0.5,3.4-1.4,4.5-2.7c0.5-0.5,0.9-1.2,1.3-2.1
					c1.2-2.5,1.6-5.1,1.3-7.9c-0.1-0.6-0.2-1.4-0.3-2.2c-0.6-2.9-1.5-5.8-2.7-8.6c-1.2-2.8-2.7-5.3-4.5-7.7c-1.5-2-3-3.5-4.5-4.5
					C117.2,86.4,117,86.4,117,86.5z"/>
			</g>
		</g>
	</g>
	<g transform="matrix( 1, 0, 0, 1, 0,0) ">
		<g>
			<g id="Layer0_28_FILL">
				<path d="M118,71.8c0,0,0.1,0.1,0.2,0.1c0.9,0.2,1.9,0.6,3,1.1c0.6,0.3,1.6,0.9,2.8,1.6l1.9,1.2c3.7,2.5,6.9,5.7,9.5,9.6
					c0.6,0.8,1,1.6,1.4,2.3c0.4,0.7,0.8,1.8,1.4,3.2l1.1,3c0.5,1.4,0.8,2.4,1,3c0.2,1,0.4,2.2,0.6,3.6c0.3,3.6,0.2,6.9-0.3,9.8
					c-0.7,3.5-1.9,6.5-3.8,8.9c-0.5,0.6-1,1.2-1.5,1.7c-1.4,1.4-3,2.4-4.9,3.2c-1.9,0.7-3.8,1.1-5.7,1.1c-2.6,0-5.5-0.6-8.7-1.8
					c-0.7-0.3-1.4-0.6-1.9-0.9c-0.6-0.3-1.3-0.7-2.1-1.2c-1.8-1.2-3.3-2.3-4.6-3.3c-1.6-1.3-2.9-2.6-3.9-4c-0.2-0.3-0.5-0.4-0.7-0.4
					c-0.1,0-0.2,0.1-0.3,0.2c-0.1,0.1-0.1,0.2-0.1,0.3c0,0.2,0.1,0.4,0.3,0.7c0.4,0.6,1,1.3,1.8,2c2.9,2.9,5.8,5.2,8.6,6.8
					c3.5,2,7,3,10.5,3.1c1.9,0.1,3.7-0.1,5.5-0.6s3.5-1.3,4.9-2.3c0.6-0.4,1.2-0.9,1.8-1.5c1-1,1.9-2.1,2.7-3.2c1.4-2,2.4-4.4,3-7
					c0.6-2.4,0.9-4.9,0.8-7.7c0-3.2-0.4-6.1-1.2-8.8c-0.2-0.7-0.6-1.7-1.1-3c-0.3-0.9-0.6-1.4-0.7-1.7c-1.6-3.9-4-7.5-7.2-10.7
					c-3-3-6.4-5.5-10.4-7.6c-0.7-0.4-1.3-0.6-1.7-0.8c-0.6-0.2-1.3-0.3-1.8-0.3c-0.1,0-0.1,0-0.1,0v0.1
					C117.9,71.7,117.9,71.7,118,71.8z"/>
			</g>
		</g>
	</g>
	<g transform="matrix( 1, 0, 0, 1, 0,0) ">
		<g>
			<g id="Layer0_29_FILL">
				<path d="M101.8,109.2L101.8,109.2c0.5,1.1,1.1,2.2,1.9,3.3c0.6,0.8,1.4,1.8,2.3,2.9c1.1,1.3,2,2.2,2.7,2.7
					c0.2,0.1,0.3,0.2,0.4,0.2c0.2,0,0.3,0,0.4-0.2c0-0.1,0-0.2-0.1-0.4c0,0-0.1-0.1-0.3-0.2c-0.2-0.1-0.5-0.4-0.8-0.7
					c-2.4-2.3-4.5-4.8-6.3-7.6C102,109.1,101.9,109.1,101.8,109.2C101.8,109.2,101.8,109.2,101.8,109.2z"/>
			</g>
		</g>
	</g>
	<path d="M83.1,154.1c0,0.6,0,1.1-0.1,1.5c-0.1,0.5-0.3,1-0.7,1.5c-0.5,0.7-1.1,1.4-1.9,2c-0.7,0.5-1.5,1-2.4,1.5
		c-1.9,1-3.8,1.7-5.9,2.2s-4.1,0.7-6.2,0.6c-1.2,0-2.2-0.2-3-0.5c-1.6-0.6-2.9-1.6-3.9-3.2c-0.9-1.3-1.5-3-1.7-4.8
		c-0.3-2.3-0.1-4.3,0.7-5.9c0.2-0.5,0.5-0.9,0.9-1.4c0.7-0.9,1.6-1.7,2.7-2.4c1-0.6,2.1-1.1,3.3-1.4c2-0.6,4.4-0.8,7.1-0.6
		c1.6,0.1,3.2,0.4,4.9,0.7c0.8,0.2,1.4,0.3,1.9,0.5c0.7,0.3,1.2,0.6,1.7,1c1,0.9,1.7,2.3,2.1,4.3C82.9,151.2,83.1,152.6,83.1,154.1z
		 M82,155.5c0.2-1.6,0-3.5-0.5-5.7c-0.2-0.9-0.4-1.6-0.7-2.1c-0.3-0.7-0.8-1.3-1.3-1.7s-1.3-0.7-2.2-1c-2-0.6-4.4-0.9-7.1-1
		c-2.2-0.1-4,0.1-5.4,0.6c-0.6,0.2-1.2,0.4-1.8,0.7c-1,0.5-1.9,1.2-2.7,1.9c-0.8,0.8-1.4,1.7-1.8,2.7c-0.5,1.4-0.6,3.1-0.3,5.1
		c0.3,1.6,0.8,2.9,1.4,4c0.8,1.3,1.9,2.3,3.1,2.8c0.9,0.4,2.2,0.6,3.7,0.7c2.1,0,4.1-0.2,6.1-0.7s3.9-1.3,5.7-2.3
		c1.3-0.7,2.2-1.5,2.9-2.2c0.3-0.3,0.5-0.6,0.6-0.9C81.9,156.1,82,155.8,82,155.5z"/>
	<path d="M81.6,149.8c0.5,2.2,0.7,4.1,0.5,5.7c0,0.3-0.1,0.6-0.2,0.8c-0.1,0.3-0.3,0.6-0.6,0.9c-0.6,0.8-1.6,1.5-2.9,2.2
		c-1.8,1-3.7,1.8-5.7,2.3s-4.1,0.7-6.1,0.7c-1.5,0-2.8-0.3-3.7-0.7c-1.2-0.6-2.3-1.5-3.1-2.8c-0.7-1.1-1.2-2.4-1.4-4
		c-0.4-2-0.3-3.7,0.3-5.1c0.4-1,1-1.9,1.8-2.7c0.8-0.7,1.7-1.4,2.7-1.9c0.6-0.3,1.2-0.6,1.8-0.7c1.3-0.4,3.1-0.6,5.4-0.6
		c2.7,0.1,5.1,0.4,7.1,1c1,0.3,1.7,0.6,2.2,1s1,1,1.3,1.7C81.1,148.2,81.4,148.9,81.6,149.8z"/>
	<g transform="matrix( 1, 0, 0, 1, 0,0) ">
		<g>
			<g id="Layer0_31_FILL">
				<path d="M126.7,126.5c0,1.4-0.3,2.5-0.8,3.6c-0.2,0.4-0.5,0.9-1,1.6c-0.5,0.8-0.9,1.3-1.2,1.6c-1,1.2-2.2,2.4-3.7,3.6
					c-1.2,0.9-2.7,1.8-4.4,2.8c-5,2.8-10,4.9-14.8,6.1c-1.3,0.3-3,0.7-5.1,1.1c-5.3,1-9.8,1.6-13.5,1.6c-0.3,0-0.5,0-0.7,0.1
					c-0.1,0.1-0.2,0.1-0.3,0.2c-0.1,0.1-0.1,0.2-0.1,0.3c0.1,0.3,0.4,0.4,0.9,0.4c9.5-0.5,17.9-2.2,24.9-4.8c0.4-0.2,1-0.4,1.6-0.7
					c0.6-0.2,1.4-0.6,2.3-1.1c2.1-1,3.8-1.9,5.2-2.7c1.8-1.1,3.5-2.1,4.9-3.3c0.6-0.4,1.1-0.9,1.6-1.4c1.1-1,2.1-2.4,3.3-4.1
					c0.4-0.6,0.7-1.1,0.9-1.5c0.3-0.6,0.4-1.6,0.5-2.8c0.1-0.7-0.1-1.2-0.3-1.5C126.8,125.8,126.7,126.1,126.7,126.5z"/>
			</g>
		</g>
	</g>
	<g transform="matrix( 1, 0, 0, 1, 0,0) ">
		<g>
			<g id="Layer0_32_FILL">
				<path d="M127.1,132.9c-0.7,1.2-1.6,2.5-2.8,3.7c-1.9,2-4,3.7-6.3,5.1c-0.6,0.4-1.5,0.8-2.6,1.4c-6.6,3.3-13.6,5.6-20.9,7
					c-1.3,0.2-2.2,0.4-2.8,0.4c-0.9,0.1-1.6,0.1-2,0.2c-0.4,0-1.6,0.2-3.6,0.5c-1.4,0.2-2.6,0.3-3.6,0.3c-0.3,0-0.5,0-0.6,0.1
					s-0.2,0.1-0.2,0.2c-0.1,0.1-0.1,0.2,0,0.3c0.1,0.2,0.3,0.2,0.6,0.2c0.9,0,2-0.1,3.3-0.3c2.1-0.3,3.2-0.5,3.3-0.5
					c0.5-0.1,1.2-0.1,2.2-0.2c1-0.1,2.3-0.3,4-0.6c6.9-1.4,13.5-3.6,19.7-6.5c1.5-0.7,2.7-1.4,3.7-1.9c2.8-1.7,5.2-3.8,7.3-6.2
					c2-2.5,3.2-4.8,3.6-7.1l0.3-3.1c0-0.3,0-0.5-0.2-0.5c-0.1-0.1-0.3,0-0.4,0.2c0,0.1-0.1,0.2-0.1,0.4
					C129,128.4,128.3,130.8,127.1,132.9z"/>
			</g>
		</g>
	</g>
	<g transform="matrix( 1, 0, 0, 1, 0,0) ">
		<g>
			<g id="Layer0_33_FILL">
				<path d="M66.2,52.3c-0.4,0.1-1,0.2-1.9,0.4c-7.6,1.8-14.6,4.8-21.2,9.1c-0.8,0.5-1.5,1-2.1,1.4c-0.7,0.5-1.4,1.1-2.2,1.7
					c-5.5,4.7-9.8,9.9-12.9,15.7c-1.6,3-2.9,6.2-3.8,9.5c-0.9,3.4-1.4,6.7-1.5,10.1c0,1.3,0,3.1,0.2,5.4c0.1,1.9,0.2,3.4,0.4,4.3
					c0.1,0.7,0.2,1.4,0.4,2c1.2,5.1,3,10,5.6,14.6l0.9,1.6c1.2,2,2.2,3.5,3,4.7c1.2,1.6,2.4,3,3.7,4.1c0.7,0.5,1.3,0.9,1.8,1.2
					c1.2,0.6,2.5,0.8,3.8,0.5c1-0.2,1.8-0.5,2.6-1.2c0.8-0.6,1.3-1.4,1.6-2.3c0.3-1.1,0.2-2.4-0.3-3.8c-0.4-1.3-1.2-2.7-2.2-4.2
					c-0.4-0.6-1.4-1.9-2.9-3.8c-3.3-4.2-6.3-8.6-9-13.2c-0.5-0.9-0.9-1.6-1.1-2.1c-0.5-0.9-0.9-2-1.3-3.2c-1-2.9-1.6-5.9-1.7-8.9
					c-0.2-3.1,0.1-6.1,0.8-9c0.2-0.8,0.5-1.9,1-3.4c0.7-2.1,1.4-3.7,2-4.9l1-1.8c1.1-1.9,1.9-3.3,2.6-4.4c1-1.6,2-2.9,3-4.1
					c1-1.1,2.2-2.2,3.5-3.4c1.1-0.9,2.4-1.9,3.9-2.9c1.1-0.8,2.1-1.4,2.8-1.9c1.2-0.7,2.6-1.5,4.3-2.2c4-1.8,8.2-3.3,12.5-4.5
					c1.4-0.4,2.6-0.6,3.5-0.7c0.4-0.1,1-0.1,1.9-0.2c0.7-0.1,1.3-0.2,1.8-0.3c0.1,0,0.2-0.1,0.2-0.1C71,52,71,52,71,51.9
					c0-0.1-0.1-0.1-0.3-0.1L68.5,52C67.6,52.1,66.8,52.2,66.2,52.3 M36.1,68c-0.9,1.1-1.9,2.4-2.8,3.8c-0.8,1.2-1.7,2.7-2.8,4.7
					c-0.4,0.7-0.7,1.3-1,1.8c-0.3,0.6-0.7,1.5-1.1,2.6c-2.2,5.6-3.2,10.6-2.9,14.9c0,0.5,0.1,1.5,0.3,3c0.1,1.1,0.3,2,0.4,2.8
					c0.4,2.1,1.1,4.4,2.2,6.7c0.8,1.8,2,3.9,3.4,6.2c1.9,3,3.9,5.9,6.2,8.7c1.6,2.1,2.6,3.3,2.9,3.7c1,1.4,1.8,2.7,2.3,4
					c0.6,1.5,0.8,2.8,0.4,3.9c-0.3,0.8-0.8,1.4-1.5,1.9s-1.5,0.7-2.4,0.8c-0.6,0-1.3-0.1-1.9-0.3c-0.9-0.3-1.9-1-2.9-2
					c-0.9-0.9-1.9-2-2.8-3.3c-0.7-1-1.5-2.2-2.3-3.6c-1.3-2.1-2.3-4-3.1-5.7c-1.7-3.6-3-7.3-3.9-11.2c-0.2-0.7-0.3-1.4-0.4-2
					c-0.1-0.5-0.1-1.1-0.2-2c-0.5-5-0.4-9.3,0.2-13.1c0.8-4.8,2.5-9.7,5.2-14.5C29.6,76.1,32.5,72.1,36.1,68 M36.8,67.3L36.8,67.3
					l-0.2,0.1L36.8,67.3L36.8,67.3L36.8,67.3L36.8,67.3z"/>
			</g>
		</g>
	</g>
	<g transform="matrix( 1, 0, 0, 1, 0,0) ">
		<g>
			<g id="Layer0_34_FILL">
				<path d="M61,60.7c0.7-0.2,1.2-0.4,1.6-0.5c0.3-0.1,0.5-0.1,0.6-0.2c0.1-0.1,0.2-0.1,0.2-0.2c0-0.1,0-0.2,0-0.3
					c-0.1-0.2-0.4-0.2-0.8-0.1c-7.5,2.5-14.4,6.1-20.9,10.7c-5.7,4.1-10,8.5-12.7,13c-0.4,0.7-0.7,1.2-0.8,1.6
					c1.2-2.2,2.8-4.4,4.9-6.7c2.7-2.8,5.9-5.5,9.8-8.2C48.6,66.1,54.6,63,61,60.7z"/>
			</g>
		</g>
	</g>
	<g transform="matrix( 1, 0, 0, 1, 0,0) ">
		<g>
			<g id="Layer0_35_FILL">
				<path d="M103,58.3c-0.3-0.1-0.5-0.3-0.7-0.4c-0.3-0.2-0.5-0.4-0.7-0.5s-0.4-0.2-0.7-0.3c-0.3-0.1-0.5-0.2-0.7-0.3
					c-0.3-0.2-0.6-0.4-0.8-0.5c-0.3-0.2-0.6-0.2-0.9-0.2c-0.1,0-0.1,0-0.1,0.1c0,0-0.1,0.1,0,0.1c0,0,0,0,0.1,0.1
					c0.5,0.2,1,0.5,1.6,0.9c1.2,0.7,2.3,1.5,3.4,2.3l1.1,0.8l1.1,1c0.2,0.2,0.4,0.3,0.6,0.3s0.3-0.1,0.4-0.3s0.1-0.3,0-0.5
					c-0.1-0.1-0.2-0.2-0.5-0.4c-0.1-0.1-0.3-0.2-0.5-0.4s-0.4-0.3-0.5-0.4c-0.4-0.3-0.7-0.5-0.9-0.6c-0.1-0.1-0.3-0.2-0.6-0.4
					C103.3,58.5,103.1,58.4,103,58.3z"/>
			</g>
		</g>
	</g>
	<g transform="matrix( 1, 0, 0, 1, 0,0) ">
		<g>
			<g id="Layer0_36_FILL">
				<path d="M101.2,65.6c0,0,0,0.1,0.1,0.2l1.7,1.4c0.8,0.7,1.6,1.3,2.2,2c0.3,0.3,0.4,0.5,0.5,0.7s0.2,0.3,0.3,0.3
					c0.1,0,0.2,0,0.2-0.1c0.1-0.1,0.1-0.2,0.1-0.2c0-0.1-0.1-0.3-0.2-0.5c-0.4-0.5-1.2-1.2-2.3-2.2c-0.2-0.2-0.5-0.4-0.7-0.5
					l-0.5-0.3l-0.6-0.5c-0.2-0.2-0.4-0.3-0.6-0.4C101.3,65.5,101.2,65.5,101.2,65.6z"/>
			</g>
		</g>
	</g>
	<g transform="matrix( 1, 0, 0, 1, 0,0) ">
		<g>
			<g id="Layer0_37_FILL">
				<path d="M20,114.1c-0.7,2.1-1.1,4.6-0.9,7.2c0.1,2.1,0.5,4.5,1.2,7.2c0.2,1,0.5,1.9,0.8,2.6c0.2,0.6,0.5,1.1,0.7,1.6
					c2.5,5.5,5.9,10.2,10.4,14.2c1.8,1.6,3.5,2.8,5,3.5c0.8,0.4,1.9,0.7,3.1,1c2.8,0.6,5.3,0.7,7.6,0.2c2-0.4,3.6-1.2,4.8-2.3
					c1.1-1,1.9-2.2,2.6-3.8c0.5-1.3,0.8-2.8,1-4.5c0.4-3.4,0.1-6.5-0.9-9.3c-0.2-0.7-0.6-1.6-1-2.6c-1.5-3.4-3.3-6.5-5.4-9.5
					c-0.6-0.9-1.2-1.6-1.8-2.2c-0.5-0.6-1.2-1.3-2.2-2.1c-2.1-1.8-4-3.3-5.8-4.5c-2.2-1.4-4.4-2.5-6.5-3.1c-0.4-0.1-0.8-0.2-1.1-0.2
					c-0.4,0-0.7,0.1-1,0.3c-0.1,0.1-0.1,0.2-0.1,0.3c0,0.1,0.1,0.1,0.3,0.1c0.6-0.2,1.4-0.1,2.5,0.3c1.7,0.6,3.5,1.5,5.2,2.6
					c1.5,0.9,3,2.1,4.7,3.6c1,0.8,1.8,1.6,2.5,2.4c0.8,0.8,1.6,1.8,2.3,3c0.5,0.8,1.2,1.9,2,3.3c1.5,2.6,2.6,4.7,3.3,6.4
					c1,2.4,1.6,4.7,1.8,6.9c0.1,1.4,0.1,2.9-0.1,4.5c-0.2,1.9-0.7,3.5-1.3,4.7c-0.2,0.4-0.5,0.9-0.8,1.3c-1,1.3-2.3,2.3-4,2.9
					c-1.4,0.5-3.1,0.8-5,0.7c-1.6,0-3.2-0.2-4.6-0.7c-1.6-0.5-3-1.1-4.2-1.9c-0.5-0.3-1.2-0.9-2-1.6c-2.2-2-4.2-4.1-6-6.5
					s-3.3-4.9-4.5-7.6c-0.3-0.7-0.5-1.3-0.7-1.6c-0.2-0.5-0.4-1.2-0.7-2.2c-0.7-2.7-1.1-5-1.3-7c-0.2-2.6,0.1-5,0.8-7.1
					c0.1-0.2,0.1-0.4,0.1-0.6c0-0.3-0.2-0.4-0.4-0.4C20.3,113.5,20.2,113.7,20,114.1z"/>
			</g>
		</g>
	</g>
	<g transform="matrix( 1, 0, 0, 1, 0,0) ">
		<g>
			<g id="Layer0_39_FILL">
				<path d="M38.8,150.7c0.4,0.3,0.9,0.6,1.5,0.8c0.4,0.1,0.9,0.3,1.7,0.5l1.4,0.4c0.6,0.2,1.1,0.3,1.6,0.4c1.6,0.3,3.2,0.4,4.9,0.2
					c1.6-0.2,3.2-0.6,4.8-1.2c0.7-0.2,1.2-0.5,1.7-0.8c1-0.6,1.8-1.4,2.4-2.4c-0.1-0.1-0.3-0.1-0.5,0.1c-0.5,0.5-1,1-1.6,1.4
					c-0.7,0.4-1.5,0.8-2.6,1.1c-3.1,1-6.1,1.3-9,0.7c-0.7-0.1-1.7-0.4-3.1-0.8c-1.4-0.4-2.4-0.7-3.2-0.8c-0.1,0-0.2,0-0.3,0.1
					C38.7,150.5,38.7,150.6,38.8,150.7z"/>
			</g>
		</g>
	</g>
	<g transform="matrix( 1, 0, 0, 1, 0,0) ">
		<g>
			<g id="Layer0_38_FILL">
				<path d="M51.3,108.8c-0.7-0.6-1.4-1-2-1.5c-2.2-1.4-4.5-2.4-7.1-2.9c-1.9-0.4-3.8-0.5-5.7-0.4c-2,0.2-3.8,0.7-5.4,1.6
					c-0.2,0.2-0.4,0.3-0.4,0.4c2-1,4.1-1.5,6.4-1.7c2.3-0.1,4.5,0.2,6.6,0.9c0.2,0.1,0.6,0.2,1.4,0.5c1.5,0.7,2.8,1.4,3.9,2.1
					c0.5,0.4,1.1,0.8,1.9,1.5c1.9,1.6,3.5,3.1,4.6,4.3c1.1,1.2,2.3,2.7,3.4,4.3c0.9,1.3,1.9,2.9,2.9,4.7c0.3,0.5,0.6,1.1,0.8,1.5
					c0.5,1.1,1.1,2.6,1.7,4.5c0.5,1.7,0.9,3.1,1.1,4.2c0.4,2.5,0.3,4.9-0.3,7.4c-0.3,1.2-0.7,2.2-1.2,3c-0.3,0.5-0.3,0.8-0.1,1
					c0.1,0.1,0.2,0.1,0.3,0.1s0.2,0,0.3-0.1c0.1-0.1,0.3-0.3,0.5-0.5c0.8-1.3,1.4-2.8,1.7-4.4c0.3-1.5,0.4-3.1,0.3-4.8
					c-0.2-2.6-1-5.7-2.4-9.2c-0.3-0.8-0.6-1.5-0.8-1.9c-0.3-0.5-0.8-1.4-1.5-2.6s-1.4-2.1-1.8-2.8C57.7,114.6,54.7,111.5,51.3,108.8
					z"/>
			</g>
		</g>
	</g>
	<polygon class="st3" points="118.3,66.1 115.2,72.7 112.3,73 114.9,57.6 116.2,57.1 118.2,57.3 119.3,58.9 119.8,62.2 	"/>
	<g transform="matrix( 1, 0, 0, 1, 0,0) ">
		<g>
			<g id="Layer0_1_FILL">
				<path d="M114.3,57.4c-0.4,0.4-0.8,0.9-1.2,1.5c-0.2,0.4-0.5,0.9-0.9,1.7l-2.3,5h-0.2c0,0.1,0,0.2,0.1,0.3
					c0.2,0.1,0.3,0.1,0.4,0.1c0.2-0.1,0.4-0.3,0.5-0.7c1-2.2,1.8-4,2.6-5.5c0.5-1,1.1-1.8,1.6-2.2c0.4-0.3,0.8-0.5,1.2-0.6
					c0.5-0.1,0.9-0.1,1.3,0.1c0.5,0.2,0.9,0.7,1.2,1.4c0.7,1.4,0.8,3.1,0.4,5.1c-0.2,0.8-0.5,1.6-0.8,2.5c-0.2,0.5-0.6,1.3-1.1,2.4
					l-1.8,3.6c-0.2,0.3-0.2,0.5-0.2,0.7c0,0.1,0.1,0.2,0.2,0.3c0.1,0.1,0.2,0.1,0.3,0.1c0.1,0,0.3-0.2,0.4-0.4l1.6-3.3
					c0.6-1.2,1-2.2,1.3-2.7c0.4-1,0.7-2,0.9-2.8c0.2-1,0.3-2,0.2-3c-0.1-1.1-0.4-2-0.9-2.8c-0.4-0.7-0.8-1.1-1.4-1.4
					c-0.5-0.3-1.2-0.3-1.8-0.2C115.4,56.6,114.8,56.9,114.3,57.4z"/>
			</g>
		</g>
	</g>
	<g transform="matrix( 1, 0, 0, 1, 0,0) ">
		<g>
			<g id="Layer0_4_FILL">
				<path d="M98.6,65.7c-1.1-0.7-2.5-1.3-4.2-1.8c-2-0.5-3.5-0.9-4.5-1.2c-0.7-0.2-1.3-0.4-1.7-0.6c-0.6-0.3-1.1-0.6-1.4-1
					c-0.3-0.3-0.5-0.8-0.7-1.3c-0.1-0.3-0.2-0.8-0.3-1.4c-0.2-1.1-0.3-1.9-0.2-2.5c0-0.2,0-0.4,0-0.5s-0.1-0.2-0.1-0.2
					c-0.1-0.1-0.1-0.1-0.2-0.1c-0.2,0-0.3,0.2-0.3,0.6c0,1.4,0.1,2.5,0.2,3.3c0.3,1.2,0.8,2.2,1.6,2.8c0.4,0.3,0.9,0.6,1.5,0.8
					c0.4,0.2,0.9,0.3,1.6,0.5c2.6,0.6,4.1,1,4.7,1.2c1.7,0.5,3.2,1.2,4.3,2c0.9,0.7,1.9,1.6,2.9,2.8c0.2,0.2,1,1.3,2.4,3.2
					c0.4,0.5,0.7,0.8,0.9,0.9c0.1,0.1,0.2,0.1,0.2,0.1c0.1,0,0.1-0.1,0.1-0.2s-0.1-0.2-0.1-0.3c-1.3-1.8-2.3-3.1-3-4
					C101,67.6,99.8,66.5,98.6,65.7z"/>
			</g>
		</g>
	</g>
</g>
<g>
	<g>
		<path d="M146.7,52.1l1.1-0.4c0.5,1.8,1,4.4,1.6,7.8c0.5,3.3,0.9,5.5,1.2,6.6c-0.1,0.4-0.3,0.7-0.6,0.7c-0.2,0-0.5,0-0.7-0.2
			s-0.4-0.4-0.5-0.7c-0.1-0.5-0.2-1.3-0.3-2.4l-0.6-3.9c-0.3,0.1-0.7,0.1-1.2,0.3c-0.5,0.1-1,0.2-1.4,0.3s-0.8,0.2-1.2,0.2
			c-0.3,0.1-0.6,0.1-0.8,0.1c0.1,0.8,0.4,2,0.6,3.4c0.3,1.5,0.5,2.5,0.6,3.1c-0.1,0.4-0.3,0.7-0.6,0.7c-0.2,0-0.5,0-0.7-0.2
			s-0.4-0.4-0.5-0.7c-0.1-1.2-0.4-3.4-0.9-6.7c-0.4-3.3-0.7-5.8-0.9-7.4l0.9,0.1c0,0,0,0.1,0,0.2c0,0.1,0,0.2,0,0.2
			c0.6,3.3,1,5.3,1.2,6.1c0.4-0.1,0.9-0.2,1.4-0.3s1.1-0.3,1.7-0.4c0.6-0.1,1.1-0.3,1.4-0.3c0,0,0-0.1,0-0.2s-0.1-0.7-0.2-1.6
			C147.2,55.5,147,54,146.7,52.1z"/>
		<path d="M151.7,61.8c-0.1-0.5-0.1-1.1-0.1-1.8s0.1-1.4,0.2-2.1c0.1-0.8,0.4-1.4,0.8-2c0.4-0.5,0.9-0.9,1.5-1
			c1.3-0.2,2.4,0.2,3.3,1.3c0.9,1,1.5,2.3,1.7,3.7c0.1,0.6,0.1,1.2,0.1,1.8s-0.2,1.2-0.3,1.8c-0.2,0.6-0.5,1.1-0.9,1.6
			s-1,0.8-1.7,0.9c-1.3,0-2.3-0.4-3.1-1.2C152.3,64.1,151.8,63,151.7,61.8z M154.3,55.9c-0.5,0.1-0.8,0.6-1,1.5
			c-0.2,0.8-0.3,1.7-0.3,2.4c0,0.8,0.1,1.4,0.1,2c0.1,0.7,0.4,1.4,1,2s1.1,0.8,1.7,0.7c0.4-0.1,0.8-0.3,1.1-0.6
			c0.3-0.4,0.5-0.8,0.6-1.3s0.2-1,0.2-1.5s0-0.9,0-1.3c-0.2-1.1-0.5-2-1.2-2.8S155.2,55.9,154.3,55.9z"/>
		<path d="M169,53h1.4c-0.1,1.1-0.3,2.8-0.5,5s-0.4,4.1-0.5,5.4c-0.5,0.2-0.9,0.3-1.3,0.3c-0.3,0-0.6,0.1-0.9,0.1l-1.7-3.8l-0.4,4.1
			c-0.5,0.2-1,0.3-1.3,0.3s-0.6,0.1-0.9,0c-0.3-0.7-0.8-1.7-1.4-3.2c-0.7-1.4-1.2-2.7-1.7-3.8s-0.9-2.1-1.3-3.1l1.3-0.1l3.8,8
			c0.3-1.3,0.5-3,0.7-4.9c-0.6-1.5-1.1-2.7-1.5-3.6l1.3-0.1l3.8,8c0.1-0.7,0.2-1.4,0.4-2.3c0.1-0.8,0.2-1.5,0.3-2.1s0.1-1.4,0.3-2.3
			C168.9,54,168.9,53.4,169,53z"/>
		<path d="M151.2,78.6v0.9c-0.6,0-1.1,0-1.5,0.1c-0.9,0.1-1.6,0.5-2.2,1.2c-0.5,0.6-0.8,1.4-0.9,2.1c-0.1,0.8-0.1,1.6,0,2.6
			c0.1,0.4,0.1,0.8,0.2,1.1c0.1,0.3,0.2,0.6,0.4,0.9s0.4,0.5,0.8,0.7c0.3,0.1,0.7,0.2,1.2,0.1c0.6-0.1,1.3-0.3,2.2-0.7
			c0.3-0.1,0.5-0.2,0.6-0.3c0.3,0,0.6,0.3,0.7,1c-1.1,0.5-2.2,0.9-3.2,1c-1.5,0.2-2.5,0-3.1-0.6s-1-1.8-1.3-3.4
			c-0.1-0.9-0.2-1.8-0.2-2.5s0.2-1.4,0.4-2.1s0.6-1.2,1.2-1.6c0.6-0.4,1.3-0.7,2.2-0.8C149.8,78.3,150.6,78.4,151.2,78.6z"/>
		<path d="M153.3,79.6l-0.5-1c0.3-0.4,0.7-0.7,1.2-1s1-0.5,1.5-0.5c2.3-0.3,3.7,1.5,4.2,5.4c0.1,0.5,0.2,1.3,0.3,2.4
			c0.1,1,0.2,1.8,0.2,2.4c0,0.4-0.2,0.7-0.5,0.7c-0.2,0-0.5-0.1-0.7-0.3c-0.2-0.2-0.4-0.5-0.4-0.8c0-0.1,0-0.2,0-0.2
			c-0.7,0.9-1.5,1.4-2.5,1.6c-0.7,0.1-1.4-0.1-2-0.5s-1-1-1.1-1.8c-0.2-1.2,0.1-2.4,1-3.6c0.8-1.1,1.8-1.8,3.1-2c0.1,0,0.1,0,0.2,0
			c0.1,0,0.1,0,0.2,0c0.1,0,0.1,0,0.2,0c-0.3-1.5-1.1-2.2-2.2-2.1C154.8,78.4,154.1,78.8,153.3,79.6z M158.4,85.2
			c-0.1-0.9-0.2-1.6-0.3-2.1c-0.1-0.4-0.2-1-0.3-1.7h-0.2c-0.9,0.2-1.8,0.6-2.4,1.4s-0.9,1.7-0.8,2.7c0.1,0.4,0.2,0.7,0.5,1
			c0.3,0.2,0.6,0.3,1,0.2C156.6,86.7,157.4,86.2,158.4,85.2z"/>
		<path d="M162.3,78.9l1.2,7.9c-0.2,0.1-0.4,0.2-0.7,0.3c-0.2,0-0.5,0-0.7,0c-0.1-0.8-0.3-2.5-0.6-5s-0.6-4.3-0.6-5.5l0.9,0.1
			l0.2,1.1c0.6-0.8,1.4-1.3,2.3-1.5c0.5-0.1,0.8-0.1,1.1-0.1s0.6,0.2,0.9,0.4c0.3,0.2,0.5,0.5,0.7,0.9s0.4,1,0.6,1.8
			c0.2,0.8,0.4,1.7,0.6,2.8c0.2,1.1,0.4,2.4,0.7,4c-0.1,0-0.2,0.1-0.5,0.1c-0.5,0.1-0.9,0.1-1.1,0c-0.1-0.2-0.2-0.6-0.2-1.1
			c0-0.3-0.1-0.7-0.2-1.4c-0.1-0.7-0.2-1.3-0.2-1.6c-0.1-0.6-0.2-1.2-0.3-1.7s-0.3-0.9-0.5-1.4s-0.4-0.8-0.7-1s-0.6-0.3-1-0.2
			c-0.4,0.1-0.8,0.1-1,0.2s-0.4,0.2-0.5,0.3C162.6,78.5,162.5,78.6,162.3,78.9z"/>
		<path d="M151.4,117.3l-1.3-0.5c0.4-1,1.1-3,2.1-5.8c-1.2-0.8-2.3-2.1-3.1-4c-0.9-1.9-1.5-3.8-1.9-5.7l1.2-0.1
			c0.1,0.3,0.4,1,0.7,2.1c0.4,1.1,0.7,1.9,0.9,2.5c0.2,0.5,0.5,1.2,1,1.9c0.5,0.8,1,1.4,1.5,1.9c1.3-3.8,1.8-6.9,1.5-9.2v-0.2
			c0.7,0,1.2,0.1,1.6,0.2c0,1.4-0.1,2.9-0.4,4.4c-0.2,1.5-0.6,3.1-1.1,4.6c-0.5,1.6-0.9,2.9-1.3,4
			C152.4,114.5,152,115.8,151.4,117.3z"/>
		<path d="M157.2,106.1c-0.1-0.5-0.1-1.1-0.1-1.8c0-0.7,0.1-1.4,0.2-2.1c0.1-0.8,0.4-1.4,0.8-2c0.4-0.5,0.9-0.9,1.5-1
			c1.3-0.2,2.4,0.2,3.3,1.3c0.9,1,1.5,2.3,1.7,3.7c0.1,0.6,0.1,1.2,0.1,1.8c0,0.6-0.2,1.2-0.3,1.8s-0.5,1.1-0.9,1.6s-1,0.8-1.7,0.9
			c-1.3,0-2.3-0.4-3.1-1.2C157.9,108.4,157.4,107.4,157.2,106.1z M159.8,100.2c-0.5,0.1-0.8,0.6-1,1.5s-0.3,1.7-0.3,2.4
			c0,0.8,0.1,1.4,0.1,2c0.1,0.7,0.4,1.4,1,2s1.1,0.8,1.7,0.7c0.4-0.1,0.8-0.3,1.1-0.6c0.3-0.4,0.5-0.8,0.6-1.3s0.2-1,0.2-1.5
			s0-0.9,0-1.3c-0.2-1.1-0.5-2-1.2-2.8C161.5,100.6,160.7,100.2,159.8,100.2z"/>
		<path d="M171.5,98.1h1v0.2c0.1,0.9,0.4,2.4,0.8,4.6c0.4,2.1,0.8,3.8,1,5c-0.3,0.1-0.5,0.2-0.7,0.3c-0.2,0-0.5,0-0.7,0l-0.2-0.5
			c-0.8,0.6-1.6,1-2.3,1.1c-0.6,0.1-1.1,0-1.5-0.2c-0.5-0.2-0.8-0.5-1.1-0.8c-0.3-0.4-0.5-0.8-0.8-1.4c-0.2-0.6-0.4-1.1-0.5-1.5
			c-0.1-0.5-0.2-1-0.3-1.6c-0.2-1.7-0.4-3.3-0.4-4.8l0.9,0.1c0.2,0.4,0.3,0.9,0.3,1.4c0,0.3,0.1,0.8,0.2,1.5
			c0.1,0.7,0.1,1.3,0.2,1.6c0.1,0.7,0.2,1.2,0.3,1.7s0.3,0.9,0.5,1.3s0.5,0.7,0.9,0.9c0.4,0.2,0.8,0.2,1.4,0.2
			c0.6-0.1,1.2-0.3,1.8-0.7c0-0.5-0.2-1.8-0.5-3.8C171.7,100.7,171.5,99.1,171.5,98.1z"/>
		<path d="M153.7,133.9l-1.1,0.4l-2.5-15.8c0.3-0.2,0.8-0.5,1.5-0.7c0,0.3,0.1,0.8,0.2,1.4c0.2,1.4,0.5,2.9,0.8,4.3
			c0.6-0.5,1.2-0.7,2-0.8c0.7-0.1,1.4,0,2,0.3s1,0.7,1.4,1.3c0.3,0.6,0.6,1.2,0.8,1.8c0.2,0.6,0.4,1.3,0.5,2c0.1,0.8,0.1,1.6,0,2.4
			c-0.1,0.8-0.5,1.5-1,2.1s-1.2,1-2.1,1.2c-0.7,0.1-1.5,0-2.3-0.4C153.6,133.4,153.7,133.6,153.7,133.9z M152.7,125.4l0.9,6.5
			c0.1,0.2,0.4,0.4,0.8,0.5c0.4,0.1,0.9,0.1,1.4,0s0.8-0.2,1.1-0.4s0.5-0.5,0.6-0.9s0.2-0.7,0.2-1.1c0-0.4,0-0.8-0.1-1.3
			s-0.2-1-0.3-1.4s-0.3-1-0.5-1.5s-0.6-1-1-1.3s-0.9-0.4-1.4-0.3c-0.4,0.1-0.7,0.2-1,0.4C153,124.8,152.8,125.1,152.7,125.4z"/>
		<path d="M169.2,129.2l0.3,0.9c-0.6,0.3-1.4,0.7-2.5,1.1c-1.1,0.4-2,0.7-2.5,0.8c-0.6,0.1-1.1,0-1.6-0.4c-0.5-0.3-0.9-0.8-1.2-1.3
			c-0.3-0.6-0.5-1.1-0.7-1.7s-0.3-1.1-0.4-1.7c-0.5-3.3,0.8-5.2,3.8-5.7c0.7-0.1,1.4,0,2,0.4s1,0.9,1.1,1.7c0.1,0.4,0,0.8-0.2,1.1
			c-0.2,0.3-0.4,0.6-0.7,0.8c-0.3,0.2-0.7,0.4-1.1,0.7c-0.5,0.2-0.9,0.4-1.2,0.5c-0.4,0.1-0.8,0.3-1.3,0.4c-0.5,0.2-0.9,0.3-1.1,0.3
			c0.1,0.4,0.1,0.7,0.2,1c0.1,0.3,0.2,0.6,0.3,0.9c0.1,0.3,0.3,0.6,0.5,0.8s0.5,0.3,0.8,0.5c0.3,0.1,0.7,0.1,1.1,0.1
			c0.5-0.1,1.1-0.2,1.7-0.4c0.7-0.2,1.3-0.4,1.8-0.5C168.9,129.3,169.1,129.3,169.2,129.2z M161.8,125.9c1.7-0.8,3.1-1.5,4.2-2.3
			c-0.2-0.4-0.3-0.7-0.5-0.9c-0.2-0.2-0.4-0.2-0.8-0.2c-0.8,0.1-1.5,0.5-2.1,1.2C162,124.4,161.7,125.1,161.8,125.9z"/>
		<path d="M170.6,122.8l1.2,7.9c-0.2,0.1-0.4,0.2-0.7,0.3c-0.2,0-0.5,0-0.7,0c-0.1-0.8-0.3-2.5-0.6-5s-0.6-4.3-0.6-5.5l0.9,0.1
			l0.2,1.1c0.6-0.8,1.4-1.3,2.3-1.5c0.5-0.1,0.8-0.1,1.1-0.1s0.6,0.2,0.9,0.4c0.3,0.2,0.5,0.5,0.7,0.9s0.4,1,0.6,1.8
			c0.2,0.8,0.4,1.7,0.6,2.8c0.2,1.1,0.4,2.4,0.7,4c-0.1,0-0.2,0.1-0.5,0.1c-0.5,0.1-0.9,0.1-1.1,0c-0.1-0.2-0.2-0.6-0.2-1.1
			c0-0.3-0.1-0.7-0.2-1.4c-0.1-0.7-0.2-1.3-0.2-1.6c-0.1-0.6-0.2-1.2-0.3-1.7s-0.3-0.9-0.5-1.4s-0.4-0.8-0.7-1s-0.6-0.3-1-0.2
			c-0.4,0.1-0.8,0.1-1,0.2s-0.4,0.2-0.5,0.3C170.9,122.4,170.8,122.5,170.6,122.8z"/>
		<path d="M186.7,126.7l0.3,0.9c-0.6,0.3-1.4,0.7-2.5,1.1s-2,0.7-2.5,0.8c-0.6,0.1-1.1,0-1.6-0.4c-0.5-0.3-0.9-0.8-1.2-1.3
			c-0.3-0.6-0.5-1.1-0.7-1.7s-0.3-1.1-0.4-1.7c-0.5-3.3,0.8-5.2,3.8-5.7c0.7-0.1,1.4,0,2,0.4s1,0.9,1.1,1.7c0.1,0.4,0,0.8-0.2,1.1
			c-0.2,0.3-0.4,0.6-0.7,0.8c-0.3,0.2-0.7,0.4-1.1,0.7s-0.9,0.4-1.2,0.5c-0.4,0.1-0.8,0.3-1.3,0.4c-0.5,0.2-0.9,0.3-1.1,0.3
			c0.1,0.4,0.1,0.7,0.2,1c0.1,0.3,0.2,0.6,0.3,0.9s0.3,0.6,0.5,0.8c0.2,0.2,0.5,0.3,0.8,0.5c0.3,0.1,0.7,0.1,1.1,0.1
			c0.5-0.1,1.1-0.2,1.7-0.4c0.7-0.2,1.3-0.4,1.8-0.5C186.4,126.8,186.7,126.7,186.7,126.7z M179.3,123.4c1.7-0.8,3.2-1.5,4.2-2.3
			c-0.2-0.4-0.3-0.7-0.5-0.9c-0.2-0.2-0.4-0.2-0.8-0.2c-0.8,0.1-1.5,0.5-2.1,1.2C179.6,121.8,179.3,122.6,179.3,123.4z"/>
		<path d="M191.9,119l0.3,0.9c-0.3,0.1-0.7,0.2-1.4,0.3c-0.6,0.1-1.1,0.3-1.4,0.4c0.5,3.4,0.9,5.9,1.2,7.5c-0.1,0.5-0.3,0.8-0.7,0.9
			c-0.2,0-0.4,0-0.5-0.1c-0.2-0.1-0.3-0.3-0.4-0.5c-0.1-0.4-0.2-1.5-0.4-3.3s-0.4-3.2-0.5-4.1l-1.5,0.2c-0.1-0.3-0.1-0.7-0.2-1.3
			c0.1,0,0.4,0,0.8,0c0.4,0,0.6,0,0.8,0c0-0.4-0.1-1-0.2-1.8c-0.2-1.5-0.2-2.6-0.1-3.2c0.2-0.6,0.7-1,1.7-1.1c1-0.2,1.9-0.1,2.6,0.2
			v0.7c-0.2,0-0.4,0-0.8,0.1c-0.4,0-0.7,0-0.8,0.1c-0.5,0.1-0.9,0.3-1.2,0.5c-0.2,0.3-0.3,0.8-0.2,1.4c0,0.2,0.1,0.4,0.1,0.7
			c0,0.2,0.1,0.4,0.1,0.5c0.1,0.5,0.1,1,0.2,1.6c0.2,0,0.5-0.1,0.9-0.1s0.7-0.1,0.8-0.1C191.3,119.1,191.6,119.1,191.9,119z"/>
		<path d="M193.4,113.5c0.4-0.1,0.7,0.1,1,0.3c0.3,0.3,0.5,0.6,0.5,1c0,0.3,0,0.5-0.1,0.7s-0.3,0.3-0.5,0.4
			c-0.4,0.1-0.7-0.1-0.9-0.3c-0.3-0.3-0.4-0.6-0.5-1c0-0.3,0-0.5,0.1-0.7C193,113.7,193.2,113.6,193.4,113.5z M193.6,117.2l1,0.1
			c0.3,1.1,0.6,2.8,1,5.1c0.4,2.3,0.7,3.8,0.8,4.3c-0.1,0.4-0.3,0.7-0.6,0.7c-0.2,0-0.5,0-0.7-0.2s-0.4-0.4-0.5-0.7
			c-0.1-0.6-0.2-2-0.5-4.3C193.8,120,193.7,118.3,193.6,117.2z"/>
		<path d="M202.4,116.5l0.4,0.9c-0.4,0.1-0.9,0.2-1.6,0.5c-0.7,0.2-1.3,0.4-1.7,0.5c0.1,0.5,0.3,1.1,0.4,1.8c0.1,0.8,0.2,1.4,0.3,2
			s0.2,1.1,0.4,1.6s0.4,0.9,0.8,1.2s0.8,0.3,1.3,0.3c0.4-0.1,0.9-0.2,1.5-0.5c0.3,0.5,0.6,0.8,0.7,1c-1,0.5-2,0.9-3.1,1
			c-0.4,0.1-0.8,0-1.1-0.2s-0.6-0.5-0.8-0.8s-0.4-0.8-0.6-1.3c-0.2-0.5-0.3-1.1-0.4-1.5c-0.1-0.5-0.2-1.1-0.3-1.7
			c0-0.3-0.1-0.8-0.2-1.4s-0.1-1-0.2-1.3c-0.1,0-0.4,0.1-0.9,0.2s-0.8,0.1-0.9,0.1c-0.2-0.9-0.3-1.3-0.3-1.4c0.1,0,0.3,0,0.5,0
			c0.1,0,0.3-0.1,0.6-0.1c0.3-0.1,0.5-0.1,0.6-0.1s0.1,0,0.2,0c0.1,0,0.1,0,0.2,0c-0.2-1.5-0.3-2.7-0.3-3.6l0.9,0.1
			c0.1,0.3,0.1,0.7,0.2,1c0.1,0.4,0.1,0.8,0.2,1.2c0.1,0.4,0.1,0.8,0.2,1c0.4,0,0.9-0.1,1.6-0.1S202,116.5,202.4,116.5z"/>
		<path d="M204.7,115.5l-0.9-0.1c-0.3-0.5-0.5-1-0.5-1.5c-0.1-0.8,0.1-1.5,0.7-2c0.6-0.5,1.3-0.9,2.2-1c1.3-0.2,2.5,0,3.4,0.7
			s1.5,1.7,1.7,3c0.1,0.6,0,1.1-0.1,1.6c-0.2,0.5-0.4,0.9-0.7,1.2c-0.3,0.3-0.6,0.7-0.9,1c-0.3,0.3-0.5,0.7-0.7,1.2s-0.3,1-0.2,1.6
			c-0.1,0.4-0.3,0.7-0.6,0.7s-0.5,0-0.8-0.2c-0.2-0.2-0.4-0.5-0.5-0.9c-0.1-0.6,0-1.1,0.2-1.6s0.5-0.9,0.8-1.3s0.7-0.7,1-1.1
			s0.6-0.8,0.8-1.3s0.3-1,0.2-1.6c-0.1-0.7-0.5-1.3-1.2-1.6c-0.7-0.3-1.5-0.5-2.2-0.3c-0.6,0.1-1.1,0.3-1.5,0.7
			c-0.4,0.4-0.5,0.9-0.5,1.5C204.3,114.8,204.5,115.1,204.7,115.5z M207.8,123.2c0.4-0.1,0.7,0.1,1,0.3c0.3,0.3,0.5,0.6,0.5,1
			c0,0.3,0,0.5-0.1,0.7s-0.3,0.3-0.5,0.4c-0.4,0.1-0.7-0.1-0.9-0.3c-0.3-0.3-0.4-0.6-0.5-1c0-0.3,0-0.5,0.1-0.7
			C207.4,123.3,207.6,123.2,207.8,123.2z"/>
	</g>
	<path d="M192.6,142.1c2.8-0.4,4.9-0.8,6.2-1.1c2.3-0.5,4.3-0.9,6.1-1.5c-0.5,0-1,0-1.6,0.1c-0.3,0-0.8,0.1-1.6,0.3
		c-2.4,0.5-5.2,1-8.3,1.6c-1.2,0.2-4,0.7-8.4,1.4c-5,0.8-28.1,4.6-33.1,5.5l-0.6,0.3l0.2,0.3C158.1,147.8,183.9,143.5,192.6,142.1z"
		/>
	<path d="M177.3,155.9c2.8-0.4,4.9-0.8,6.2-1.1c2.3-0.5,4.3-0.9,6.1-1.5c-0.5,0-1,0-1.6,0.1c-0.3,0-0.8,0.1-1.6,0.3
		c-2.4,0.5-5.2,1-8.3,1.6c-1.2,0.2-4,0.7-8.4,1.4c-5,0.8-9.9,1.6-14.8,2.4l-0.6,0.3l0.2,0.3C161,158.6,168.6,157.3,177.3,155.9z"/>
</g>
</svg>
